{"glyphs":{"0":{"ha":972,"x_min":54,"x_max":918,"o":"m 257 136 l 781 661 l 781 189 q 766 152 781 168 q 728 136 750 136 l 257 136 m 715 788 l 191 263 l 191 734 q 206 772 191 757 q 243 788 222 788 l 715 788 m 243 924 q 110 869 165 924 q 54 734 54 813 l 54 189 q 110 56 54 111 q 243 0 165 0 l 728 0 q 862 56 806 0 q 918 189 918 111 l 918 734 q 862 869 918 813 q 728 924 806 924 l 243 924 z "},"1":{"ha":517,"x_min":54,"x_max":463,"o":"m 395 0 q 347 20 367 0 q 327 68 327 40 l 327 691 l 171 535 q 123 515 151 515 q 74 535 94 515 q 54 583 54 555 q 74 631 54 612 l 347 904 q 421 919 379 937 q 463 856 463 901 l 463 68 q 444 20 463 40 q 395 0 423 0 z "},"2":{"ha":994,"x_min":54,"x_max":940,"o":"m 135 0 q 71 45 87 0 q 91 121 54 90 l 772 692 q 774 693 773 692 q 791 752 803 716 q 741 788 779 788 l 135 788 q 87 808 106 788 q 66 856 66 827 q 87 904 66 884 q 135 924 106 924 l 741 924 q 851 889 802 924 q 920 797 900 854 q 923 682 940 739 q 859 587 907 625 l 322 136 l 862 136 q 910 117 890 136 q 930 68 930 96 q 910 20 930 40 q 862 0 890 0 l 135 0 z "},"3":{"ha":972,"x_min":54,"x_max":918,"o":"m 123 924 q 74 904 94 924 q 54 856 54 884 q 74 808 54 827 q 123 788 94 788 l 607 788 q 730 736 680 788 q 781 614 781 686 l 781 530 l 123 530 q 74 510 94 530 q 54 462 54 490 q 74 414 54 434 q 123 394 94 394 l 781 394 l 781 311 q 730 187 781 239 q 607 136 680 136 l 123 136 q 74 117 94 136 q 54 68 54 96 q 74 20 54 40 q 123 0 94 0 l 607 0 q 827 91 736 0 q 918 311 918 182 l 918 614 q 827 833 918 742 q 607 924 736 924 l 123 924 z "},"4":{"ha":972,"x_min":54,"x_max":918,"o":"m 585 409 l 585 583 q 564 631 585 612 q 516 651 545 651 q 468 631 488 651 q 448 583 448 612 l 448 409 l 243 409 q 206 425 222 409 q 191 462 191 440 l 191 856 q 171 904 191 884 q 123 924 151 924 q 74 904 94 924 q 54 856 54 884 l 54 462 q 110 328 54 384 q 243 273 165 273 l 448 273 l 448 68 q 468 20 448 40 q 516 0 488 0 q 564 20 545 0 q 585 68 585 40 l 585 273 l 850 273 q 898 292 878 273 q 918 341 918 313 q 898 389 918 369 q 850 409 878 409 l 585 409 z "},"5":{"ha":972,"x_min":54,"x_max":918,"o":"m 123 0 q 74 20 94 0 q 54 68 54 40 q 74 117 54 96 q 123 136 94 136 l 652 136 q 743 174 706 136 q 781 265 781 212 q 743 356 781 318 q 652 394 706 394 l 123 394 q 74 414 94 394 q 54 462 54 434 l 54 856 q 74 904 54 884 q 123 924 94 924 l 850 924 q 898 904 878 924 q 918 856 918 884 q 898 808 918 827 q 850 788 878 788 l 191 788 l 191 530 l 652 530 q 840 452 762 530 q 918 265 918 375 q 840 78 918 155 q 652 0 762 0 l 123 0 z "},"6":{"ha":972,"x_min":54,"x_max":918,"o":"m 191 394 l 191 311 q 241 187 191 239 q 365 136 293 136 l 652 136 q 743 174 706 136 q 781 265 781 212 q 743 356 781 318 q 652 394 706 394 l 191 394 m 365 0 q 145 91 237 0 q 54 311 54 182 l 54 614 q 145 833 54 742 q 365 924 237 924 l 850 924 q 898 904 878 924 q 918 856 918 884 q 898 808 918 827 q 850 788 878 788 l 365 788 q 241 736 293 788 q 191 614 191 686 l 191 530 l 652 530 q 840 452 762 530 q 918 265 918 375 q 840 78 918 155 q 652 0 762 0 l 365 0 z "},"7":{"ha":949,"x_min":54,"x_max":895,"o":"m 577 0 q 557 3 567 0 q 517 37 530 12 q 512 88 503 61 l 727 788 l 123 788 q 74 808 94 788 q 54 856 54 827 q 74 904 54 884 q 123 924 94 924 l 819 924 q 874 897 854 924 q 884 836 895 869 l 642 48 q 577 0 627 0 z "},"8":{"ha":972,"x_min":54,"x_max":918,"o":"m 319 136 q 229 174 266 136 q 191 265 191 212 q 229 356 191 318 q 319 394 266 394 l 652 394 q 743 356 706 394 q 781 265 781 318 q 743 174 781 212 q 652 136 706 136 l 319 136 m 191 659 q 229 750 191 712 q 319 788 266 788 l 652 788 q 743 750 706 788 q 781 659 781 712 q 743 568 781 606 q 652 530 706 530 l 319 530 q 229 568 266 530 q 191 659 191 606 m 830 462 q 918 659 918 541 q 840 846 918 768 q 652 924 762 924 l 319 924 q 132 846 210 924 q 54 659 54 768 q 142 462 54 541 q 54 265 54 383 q 132 78 54 155 q 319 0 210 0 l 652 0 q 840 78 762 0 q 918 265 918 155 q 830 462 918 383 z "},"9":{"ha":972,"x_min":54,"x_max":918,"o":"m 319 788 q 229 750 266 788 q 191 659 191 712 q 229 568 191 606 q 319 530 266 530 l 781 530 l 781 614 q 730 736 781 686 q 607 788 680 788 l 319 788 m 123 0 q 74 20 94 0 q 54 68 54 40 q 74 117 54 96 q 123 136 94 136 l 607 136 q 730 187 680 136 q 781 311 781 239 l 781 394 l 319 394 q 132 471 210 394 q 54 659 54 549 q 132 846 54 768 q 319 924 210 924 l 607 924 q 827 833 736 924 q 918 614 918 742 l 918 311 q 827 91 918 182 q 607 0 736 0 l 123 0 z "},"\u0000":{"ha":0,"x_min":0,"x_max":0,"o":""}," ":{"ha":345,"x_min":0,"x_max":0,"o":""},"!":{"ha":245,"x_min":54,"x_max":191,"o":"m 123 0 q 74 20 94 0 q 54 68 54 40 q 74 117 54 96 q 123 136 94 136 q 171 117 151 136 q 191 68 191 96 q 171 20 191 40 q 123 0 151 0 m 123 182 q 74 201 94 182 q 54 250 54 222 l 54 856 q 74 904 54 884 q 123 924 94 924 q 171 904 151 924 q 191 856 191 884 l 191 250 q 171 201 191 222 q 123 182 151 182 z "},"\"":{"ha":381,"x_min":54,"x_max":327,"o":"m 115 922 q 72 940 90 922 q 54 983 54 958 l 54 1104 q 72 1147 54 1129 q 115 1164 90 1164 q 158 1147 140 1164 q 176 1104 176 1129 l 176 983 q 158 940 176 958 q 115 922 140 922 m 267 922 q 224 940 241 922 q 205 983 205 958 l 205 1104 q 224 1147 205 1129 q 267 1164 241 1164 q 309 1147 292 1164 q 327 1104 327 1129 l 327 983 q 309 940 327 958 q 267 922 292 922 z "},"#":{"ha":1154,"x_min":54,"x_max":1099,"o":"m 616 409 l 483 409 l 507 515 l 640 515 l 616 409 m 1031 515 q 1080 535 1059 515 q 1099 583 1099 555 q 1080 631 1099 612 q 1031 651 1059 651 l 812 651 l 855 840 q 847 892 862 868 q 804 922 831 916 q 753 913 777 928 q 722 871 729 899 l 672 651 l 539 651 l 583 840 q 574 892 589 868 q 532 922 559 916 q 480 913 504 928 q 450 871 456 899 l 399 651 l 153 651 q 104 631 125 651 q 85 583 85 612 q 104 535 85 555 q 153 515 125 515 l 368 515 l 343 409 l 123 409 q 74 389 94 409 q 54 341 54 369 q 74 293 54 313 q 123 273 94 273 l 312 273 l 268 83 q 277 32 262 56 q 319 2 292 8 q 334 0 327 0 q 376 15 358 0 q 401 53 395 29 l 452 273 l 585 273 l 541 83 q 549 32 534 56 q 592 2 564 8 q 607 0 600 0 q 649 15 631 0 q 673 53 668 29 l 724 273 l 1001 273 q 1049 293 1029 273 q 1069 341 1069 313 q 1049 389 1069 369 q 1001 409 1029 409 l 755 409 l 781 515 l 1031 515 z "},"$":{"ha":790,"x_min":54,"x_max":736,"o":"m 270 530 q 214 553 237 530 q 191 610 191 577 q 214 666 191 643 q 270 689 237 689 l 668 689 q 716 709 696 689 q 736 758 736 729 q 716 806 736 785 q 668 825 696 825 l 463 825 l 463 856 q 444 904 463 884 q 395 924 423 924 q 347 904 367 924 q 327 856 327 884 l 327 825 l 270 825 q 117 762 181 825 q 54 610 54 699 q 117 457 54 520 q 270 394 181 394 l 520 394 q 576 370 553 394 q 600 314 600 347 q 576 258 600 281 q 520 235 553 235 l 123 235 q 74 215 94 235 q 54 167 54 195 q 74 119 54 138 q 123 98 94 98 l 327 98 l 327 68 q 347 20 327 40 q 395 0 367 0 q 444 20 423 0 q 463 68 463 40 l 463 98 l 520 98 q 673 162 609 98 q 736 314 736 225 q 673 467 736 404 q 520 530 609 530 l 270 530 z "},"%":{"ha":608,"x_min":54,"x_max":554,"o":"m 123 394 q 74 414 94 394 q 54 462 54 434 q 74 510 54 490 q 123 530 94 530 q 171 510 151 530 q 191 462 191 490 q 171 414 191 434 q 123 394 151 394 m 486 394 q 438 414 458 394 q 418 462 418 434 q 438 510 418 490 q 486 530 458 530 q 534 510 514 530 q 554 462 554 490 q 534 414 554 434 q 486 394 514 394 m 214 0 q 198 2 205 0 q 155 32 170 8 q 147 83 140 56 l 329 871 q 359 913 335 899 q 410 922 383 928 q 453 892 438 916 q 462 840 468 868 l 279 53 q 256 15 275 29 q 214 0 237 0 z "},"&":{"ha":1002,"x_min":54,"x_max":948,"o":"m 690 189 q 675 152 690 168 q 637 136 659 136 l 243 136 q 206 152 222 136 q 191 189 191 168 l 191 394 l 690 394 l 690 189 m 827 530 l 827 583 q 807 631 827 612 q 759 651 787 651 q 711 631 730 651 q 690 583 690 612 l 690 530 l 191 530 l 191 734 q 206 772 191 757 q 243 788 222 788 l 698 788 q 746 808 726 788 q 766 856 766 827 q 746 904 766 884 q 698 924 726 924 l 243 924 q 110 869 165 924 q 54 734 54 813 l 54 189 q 110 56 54 111 q 243 0 165 0 l 637 0 q 771 56 715 0 q 827 189 827 111 l 827 394 l 880 394 q 928 414 908 394 q 948 462 948 434 q 928 510 948 490 q 880 530 908 530 l 827 530 z "},"'":{"ha":230,"x_min":54,"x_max":176,"o":"m 115 922 q 72 939 90 922 q 54 982 54 957 l 54 1103 q 72 1146 54 1128 q 115 1164 90 1164 q 158 1146 140 1164 q 176 1103 176 1128 l 176 982 q 158 939 176 957 q 115 922 140 922 z "},"(":{"ha":517,"x_min":54,"x_max":463,"o":"m 243 -185 q 110 -130 165 -185 q 54 4 54 -74 l 54 913 q 110 1047 54 991 q 243 1103 165 1103 l 395 1103 q 444 1082 423 1103 q 463 1034 463 1063 q 444 986 463 1006 q 395 966 423 966 l 243 966 q 206 951 222 966 q 191 913 191 935 l 191 4 q 206 -33 191 -18 q 243 -49 222 -49 l 395 -49 q 444 -68 423 -49 q 463 -117 463 -89 q 444 -165 463 -145 q 395 -185 423 -185 l 243 -185 z "},")":{"ha":517,"x_min":54,"x_max":463,"o":"m 123 -185 q 74 -165 94 -185 q 54 -117 54 -145 q 74 -68 54 -89 q 123 -49 94 -49 l 274 -49 q 311 -33 296 -49 q 327 4 327 -18 l 327 913 q 311 951 327 935 q 274 966 296 966 l 123 966 q 74 986 94 966 q 54 1034 54 1006 q 74 1082 54 1063 q 123 1103 94 1103 l 274 1103 q 408 1047 352 1103 q 463 913 463 991 l 463 4 q 408 -130 463 -74 q 274 -185 352 -185 l 123 -185 z "},"+":{"ha":608,"x_min":54,"x_max":554,"o":"m 372 484 l 372 597 q 353 646 372 625 q 304 665 332 665 q 256 646 276 665 q 236 597 236 625 l 236 484 l 123 484 q 74 464 94 484 q 54 416 54 444 q 74 367 54 387 q 123 347 94 347 l 236 347 l 236 234 q 256 185 236 205 q 304 165 276 165 q 353 185 332 165 q 372 234 372 205 l 372 347 l 486 347 q 534 367 514 347 q 554 416 554 387 q 534 464 554 444 q 486 484 514 484 l 372 484 z "},",":{"ha":366,"x_min":54,"x_max":312,"o":"m 123 -184 q 74 -165 94 -184 q 54 -116 54 -144 q 74 -68 54 -88 q 123 -48 94 -48 q 160 -33 144 -48 q 176 5 176 -17 l 176 66 q 195 114 176 94 q 243 134 216 134 q 292 114 272 134 q 312 66 312 94 l 312 5 q 256 -129 312 -73 q 123 -184 201 -184 z "},"-":{"ha":608,"x_min":54,"x_max":554,"o":"m 123 352 q 74 372 94 352 q 54 420 54 392 q 74 469 54 448 q 123 488 94 488 l 486 488 q 534 469 514 488 q 554 420 554 448 q 534 372 554 392 q 486 352 514 352 l 123 352 z "},".":{"ha":245,"x_min":54,"x_max":191,"o":"m 123 0 q 74 20 94 0 q 54 68 54 40 q 74 117 54 96 q 123 136 94 136 q 171 117 151 136 q 191 68 191 96 q 171 20 191 40 q 123 0 151 0 z "},"/":{"ha":436,"x_min":54,"x_max":382,"o":"m 127 0 q 112 2 119 0 q 69 32 85 8 q 61 83 54 56 l 243 871 q 273 913 249 899 q 324 922 297 928 q 367 892 352 916 q 376 840 382 868 l 194 53 q 170 15 189 29 q 127 0 151 0 z "},":":{"ha":245,"x_min":54,"x_max":191,"o":"m 123 0 q 74 20 94 0 q 54 68 54 40 q 74 117 54 96 q 123 136 94 136 q 171 117 151 136 q 191 68 191 96 q 171 20 191 40 q 123 0 151 0 m 123 394 q 74 414 94 394 q 54 462 54 434 q 74 510 54 490 q 123 530 94 530 q 171 510 151 530 q 191 462 191 490 q 171 414 191 434 q 123 394 151 394 z "},";":{"ha":366,"x_min":54,"x_max":312,"o":"m 123 -186 q 74 -167 94 -186 q 54 -118 54 -146 q 74 -70 54 -90 q 123 -50 94 -50 q 160 -35 144 -50 q 176 3 176 -19 l 176 64 q 195 112 176 92 q 243 132 216 132 q 292 112 272 132 q 312 64 312 92 l 312 3 q 256 -131 312 -75 q 123 -186 201 -186 m 243 389 q 195 409 216 389 q 176 457 176 429 q 195 505 176 486 q 243 526 216 526 q 292 505 272 526 q 312 457 312 486 q 292 409 312 429 q 243 389 272 389 z "},"=":{"ha":608,"x_min":54,"x_max":554,"o":"m 123 473 q 74 493 94 473 q 54 541 54 513 q 74 589 54 570 q 123 609 94 609 l 486 609 q 534 589 514 609 q 554 541 554 570 q 534 493 554 513 q 486 473 514 473 l 123 473 m 123 231 q 74 250 94 231 q 54 299 54 271 q 74 347 54 327 q 123 367 94 367 l 486 367 q 534 347 514 367 q 554 299 554 327 q 534 250 554 271 q 486 231 514 231 l 123 231 z "},"?":{"ha":972,"x_min":54,"x_max":918,"o":"m 486 0 q 438 20 458 0 q 418 68 418 40 q 438 117 418 96 q 486 136 458 136 q 534 117 514 136 q 554 68 554 96 q 534 20 554 40 q 486 0 514 0 m 486 182 q 438 201 458 182 q 418 250 418 222 l 418 462 q 438 510 418 490 q 486 530 458 530 l 781 530 l 781 788 l 123 788 q 74 808 94 788 q 54 856 54 827 q 74 904 54 884 q 123 924 94 924 l 850 924 q 898 904 878 924 q 918 856 918 884 l 918 462 q 898 414 918 434 q 850 394 878 394 l 554 394 l 554 250 q 534 201 554 222 q 486 182 514 182 z "},"@":{"ha":1063,"x_min":54,"x_max":1008,"o":"m 403 523 q 418 560 403 545 q 456 576 434 576 l 607 576 q 645 560 629 576 q 660 523 660 545 l 660 318 l 456 318 q 418 334 434 318 q 403 371 403 349 l 403 523 m 243 924 q 110 869 165 924 q 54 734 54 813 l 54 189 q 110 56 54 111 q 243 0 165 0 l 516 0 q 564 20 545 0 q 585 68 585 40 q 564 117 585 96 q 516 136 545 136 l 243 136 q 206 152 222 136 q 191 189 191 168 l 191 734 q 206 772 191 757 q 243 788 222 788 l 819 788 q 857 772 841 788 q 872 734 872 757 l 872 136 l 796 136 l 796 523 q 741 656 796 601 q 607 712 686 712 l 456 712 q 322 656 377 712 q 267 523 267 601 l 267 371 q 322 237 267 293 q 456 182 377 182 l 660 182 l 660 129 q 698 38 660 75 q 789 0 736 0 l 880 0 q 971 38 933 0 q 1008 129 1008 75 l 1008 734 q 953 869 1008 813 q 819 924 897 924 l 243 924 z "},"A":{"ha":972,"x_min":54,"x_max":918,"o":"m 850 0 q 802 20 821 0 q 781 68 781 40 l 781 614 q 730 736 781 686 q 607 788 680 788 l 365 788 q 241 736 293 788 q 191 614 191 686 l 191 68 q 171 20 191 40 q 123 0 151 0 q 74 20 94 0 q 54 68 54 40 l 54 614 q 145 833 54 742 q 365 924 237 924 l 607 924 q 827 833 736 924 q 918 614 918 742 l 918 68 q 898 20 918 40 q 850 0 878 0 z "},"B":{"ha":972,"x_min":54,"x_max":918,"o":"m 830 462 q 918 659 918 541 q 840 846 918 768 q 652 924 762 924 l 123 924 q 74 904 94 924 q 54 856 54 884 q 74 808 54 827 q 123 788 94 788 l 652 788 q 743 750 706 788 q 781 659 781 712 q 743 568 781 606 q 652 530 706 530 l 123 530 q 74 510 94 530 q 54 462 54 490 q 74 414 54 434 q 123 394 94 394 l 652 394 q 743 356 706 394 q 781 265 781 318 q 743 174 781 212 q 652 136 706 136 l 123 136 q 74 117 94 136 q 54 68 54 96 q 74 20 54 40 q 123 0 94 0 l 652 0 q 840 78 762 0 q 918 265 918 155 q 830 462 918 383 z "},"C":{"ha":972,"x_min":54,"x_max":918,"o":"m 243 0 q 110 56 165 0 q 54 189 54 111 l 54 734 q 110 869 54 813 q 243 924 165 924 l 850 924 q 898 904 878 924 q 918 856 918 884 q 898 808 918 827 q 850 788 878 788 l 243 788 q 206 772 222 788 q 191 734 191 757 l 191 189 q 206 152 191 168 q 243 136 222 136 l 850 136 q 898 117 878 136 q 918 68 918 96 q 898 20 918 40 q 850 0 878 0 l 243 0 z "},"D":{"ha":972,"x_min":54,"x_max":918,"o":"m 123 0 q 74 20 94 0 q 54 68 54 40 q 74 117 54 96 q 123 136 94 136 l 607 136 q 730 187 680 136 q 781 311 781 239 l 781 614 q 730 736 781 686 q 607 788 680 788 l 123 788 q 74 808 94 788 q 54 856 54 827 q 74 904 54 884 q 123 924 94 924 l 607 924 q 827 833 736 924 q 918 614 918 742 l 918 311 q 827 91 918 182 q 607 0 736 0 l 123 0 z "},"E":{"ha":972,"x_min":54,"x_max":918,"o":"m 123 136 q 74 117 94 136 q 54 68 54 96 q 74 20 54 40 q 123 0 94 0 l 850 0 q 898 20 878 0 q 918 68 918 40 q 898 117 918 96 q 850 136 878 136 l 123 136 m 850 788 q 898 808 878 788 q 918 856 918 827 q 898 904 918 884 q 850 924 878 924 l 123 924 q 74 904 94 924 q 54 856 54 884 q 74 808 54 827 q 123 788 94 788 l 850 788 m 123 530 q 74 510 94 530 q 54 462 54 490 q 74 414 54 434 q 123 394 94 394 l 850 394 q 898 414 878 394 q 918 462 918 434 q 898 510 918 490 q 850 530 878 530 l 123 530 z "},"F":{"ha":972,"x_min":54,"x_max":918,"o":"m 123 924 q 74 904 94 924 q 54 856 54 884 l 54 68 q 74 20 54 40 q 123 0 94 0 q 171 20 151 0 q 191 68 191 40 l 191 788 l 850 788 q 898 808 878 788 q 918 856 918 827 q 898 904 918 884 q 850 924 878 924 l 123 924 m 304 530 q 256 510 276 530 q 236 462 236 490 q 256 414 236 434 q 304 394 276 394 l 728 394 q 777 414 757 394 q 796 462 796 434 q 777 510 796 490 q 728 530 757 530 l 304 530 z "},"G":{"ha":972,"x_min":54,"x_max":918,"o":"m 425 530 q 377 510 397 530 q 357 462 357 490 q 377 414 357 434 q 425 394 397 394 l 781 394 l 781 189 q 766 152 781 168 q 728 136 750 136 l 243 136 q 206 152 222 136 q 191 189 191 168 l 191 462 q 171 510 191 490 q 123 530 151 530 q 74 510 94 530 q 54 462 54 490 l 54 189 q 110 56 54 111 q 243 0 165 0 l 728 0 q 862 56 806 0 q 918 189 918 111 l 918 462 q 898 510 918 490 q 850 530 878 530 l 425 530 m 243 924 q 110 869 165 924 q 54 734 54 813 q 74 686 54 707 q 123 667 94 667 q 171 686 151 667 q 191 734 191 707 q 206 772 191 757 q 243 788 222 788 l 728 788 q 766 772 750 788 q 781 734 781 757 l 781 705 q 802 656 781 676 q 850 636 821 636 q 898 656 878 636 q 918 705 918 676 l 918 734 q 862 869 918 813 q 728 924 806 924 l 243 924 z "},"H":{"ha":972,"x_min":54,"x_max":918,"o":"m 850 924 q 802 904 821 924 q 781 856 781 884 l 781 530 l 191 530 l 191 856 q 171 904 191 884 q 123 924 151 924 q 74 904 94 924 q 54 856 54 884 l 54 68 q 74 20 54 40 q 123 0 94 0 q 171 20 151 0 q 191 68 191 40 l 191 394 l 781 394 l 781 68 q 802 20 781 40 q 850 0 821 0 q 898 20 878 0 q 918 68 918 40 l 918 856 q 898 904 918 884 q 850 924 878 924 z "},"I":{"ha":245,"x_min":54,"x_max":191,"o":"m 123 0 q 74 20 94 0 q 54 68 54 40 l 54 856 q 74 904 54 884 q 123 924 94 924 q 171 904 151 924 q 191 856 191 884 l 191 68 q 171 20 191 40 q 123 0 151 0 z "},"J":{"ha":578,"x_min":54,"x_max":524,"o":"m 123 0 q 74 20 94 0 q 54 68 54 40 q 74 117 54 96 q 123 136 94 136 l 334 136 q 372 152 357 136 q 387 189 387 168 l 387 856 q 408 904 387 884 q 456 924 427 924 q 504 904 484 924 q 524 856 524 884 l 524 189 q 469 56 524 111 q 334 0 413 0 l 123 0 z "},"K":{"ha":972,"x_min":54,"x_max":918,"o":"m 123 924 q 74 904 94 924 q 54 856 54 884 l 54 68 q 74 20 54 40 q 123 0 94 0 q 171 20 151 0 q 191 68 191 40 l 191 856 q 171 904 191 884 q 123 924 151 924 m 918 856 q 898 904 918 884 q 850 924 878 924 q 802 904 821 924 q 781 856 781 884 l 781 705 q 730 581 781 632 q 607 530 680 530 l 304 530 q 256 510 276 530 q 236 462 236 490 q 256 414 236 434 q 304 394 276 394 l 607 394 q 730 342 680 394 q 781 220 781 292 l 781 68 q 802 20 781 40 q 850 0 821 0 q 898 20 878 0 q 918 68 918 40 l 918 220 q 801 462 918 368 q 918 705 918 555 l 918 856 z "},"L":{"ha":972,"x_min":54,"x_max":918,"o":"m 123 0 q 74 20 94 0 q 54 68 54 40 l 54 856 q 74 904 54 884 q 123 924 94 924 q 171 904 151 924 q 191 856 191 884 l 191 136 l 850 136 q 898 117 878 136 q 918 68 918 96 q 898 20 918 40 q 850 0 878 0 l 123 0 z "},"M":{"ha":1093,"x_min":54,"x_max":1039,"o":"m 970 0 q 922 20 943 0 q 903 68 903 40 l 903 700 l 593 412 q 547 394 573 394 q 500 412 519 394 l 191 700 l 191 68 q 171 20 191 40 q 123 0 151 0 q 74 20 94 0 q 54 68 54 40 l 54 856 q 95 918 54 901 q 169 906 136 936 l 547 555 l 924 906 q 998 918 957 936 q 1039 856 1039 901 l 1039 68 q 1019 20 1039 40 q 970 0 999 0 z "},"N":{"ha":972,"x_min":54,"x_max":918,"o":"m 850 924 q 802 904 821 924 q 781 856 781 884 l 781 245 l 627 416 q 581 439 608 437 q 531 422 552 441 q 509 375 510 403 q 526 326 507 347 l 799 22 q 850 0 819 0 q 874 5 862 0 q 918 68 918 21 l 918 856 q 898 904 918 884 q 850 924 878 924 m 173 901 q 98 920 142 937 q 54 856 54 903 l 54 68 q 74 20 54 40 q 123 0 94 0 q 171 20 151 0 q 191 68 191 40 l 191 678 l 345 507 q 391 485 363 486 q 441 503 420 484 q 463 549 462 521 q 446 599 465 578 l 173 901 z "},"O":{"ha":972,"x_min":54,"x_max":918,"o":"m 486 363 q 438 384 458 363 q 418 432 418 404 l 418 492 q 438 541 418 521 q 486 560 458 560 q 534 541 514 560 q 554 492 554 521 l 554 432 q 534 384 554 404 q 486 363 514 363 m 243 788 q 206 772 222 788 q 191 734 191 757 l 191 189 q 206 152 191 168 q 243 136 222 136 l 728 136 q 766 152 750 136 q 781 189 781 168 l 781 734 q 766 772 781 757 q 728 788 750 788 l 243 788 m 243 0 q 110 56 165 0 q 54 189 54 111 l 54 734 q 110 869 54 813 q 243 924 165 924 l 728 924 q 862 869 806 924 q 918 734 918 813 l 918 189 q 862 56 918 111 q 728 0 806 0 l 243 0 z "},"P":{"ha":972,"x_min":54,"x_max":918,"o":"m 153 0 q 104 20 125 0 q 85 68 85 40 l 85 462 q 104 510 85 490 q 153 530 125 530 l 652 530 q 743 568 706 530 q 781 659 781 606 q 743 750 781 712 q 652 788 706 788 l 123 788 q 74 808 94 788 q 54 856 54 827 q 74 904 54 884 q 123 924 94 924 l 652 924 q 840 846 762 924 q 918 659 918 768 q 840 471 918 549 q 652 394 762 394 l 221 394 l 221 68 q 201 20 221 40 q 153 0 181 0 z "},"Q":{"ha":1033,"x_min":54,"x_max":979,"o":"m 243 136 q 206 152 222 136 q 191 190 191 168 l 191 735 q 206 772 191 757 q 243 788 222 788 l 728 788 q 766 772 750 788 q 781 735 781 757 l 781 233 l 716 298 q 668 318 696 318 q 620 298 640 318 q 600 250 600 279 q 620 202 600 222 l 685 136 l 243 136 m 901 113 q 918 190 918 149 l 918 735 q 862 869 918 813 q 728 924 806 924 l 243 924 q 110 869 165 924 q 54 735 54 813 l 54 190 q 110 56 54 111 q 243 0 165 0 l 728 0 q 805 16 768 0 l 862 -41 q 910 -60 882 -60 q 958 -41 939 -60 q 979 8 979 -20 q 958 56 979 36 l 901 113 z "},"R":{"ha":972,"x_min":54,"x_max":918,"o":"m 815 450 q 918 659 918 530 q 840 846 918 768 q 652 924 762 924 l 123 924 q 74 904 94 924 q 54 856 54 884 q 74 808 54 827 q 123 788 94 788 l 652 788 q 743 750 706 788 q 781 659 781 712 q 743 568 781 606 q 652 530 706 530 l 123 530 q 74 510 94 530 q 54 462 54 490 q 74 414 54 434 q 123 394 94 394 l 607 394 q 730 342 680 394 q 781 220 781 292 l 781 68 q 802 20 781 40 q 850 0 821 0 q 898 20 878 0 q 918 68 918 40 l 918 220 q 815 450 918 357 z "},"S":{"ha":972,"x_min":54,"x_max":918,"o":"m 123 0 q 74 20 94 0 q 54 68 54 40 q 74 117 54 96 q 123 136 94 136 l 652 136 q 743 174 706 136 q 781 265 781 212 q 743 356 781 318 q 652 394 706 394 l 607 394 q 559 414 579 394 q 539 462 539 434 q 559 510 539 490 q 607 530 579 530 l 652 530 q 840 452 762 530 q 918 265 918 375 q 840 78 918 155 q 652 0 762 0 l 123 0 m 319 394 q 132 471 210 394 q 54 659 54 549 q 132 846 54 768 q 319 924 210 924 l 850 924 q 898 904 878 924 q 918 856 918 884 q 898 808 918 827 q 850 788 878 788 l 319 788 q 229 750 266 788 q 191 659 191 712 q 229 568 191 606 q 319 530 266 530 l 365 530 q 413 510 393 530 q 433 462 433 490 q 413 414 433 434 q 365 394 393 394 l 319 394 z "},"T":{"ha":972,"x_min":54,"x_max":918,"o":"m 123 924 q 74 904 94 924 q 54 856 54 884 q 74 808 54 827 q 123 788 94 788 l 433 788 l 433 68 q 453 20 433 40 q 501 0 473 0 q 549 20 530 0 q 569 68 569 40 l 569 788 l 850 788 q 898 808 878 788 q 918 856 918 827 q 898 904 918 884 q 850 924 878 924 l 123 924 z "},"U":{"ha":972,"x_min":54,"x_max":918,"o":"m 365 136 q 241 187 293 136 q 191 311 191 239 l 191 856 q 171 904 191 884 q 123 924 151 924 q 74 904 94 924 q 54 856 54 884 l 54 311 q 145 91 54 182 q 365 0 237 0 q 413 20 393 0 q 433 68 433 40 q 413 117 433 96 q 365 136 393 136 m 850 924 q 802 904 821 924 q 781 856 781 884 l 781 311 q 730 187 781 239 q 607 136 680 136 q 559 117 579 136 q 539 68 539 96 q 559 20 539 40 q 607 0 579 0 q 827 91 736 0 q 918 311 918 182 l 918 856 q 898 904 918 884 q 850 924 878 924 z "},"V":{"ha":983,"x_min":54,"x_max":929,"o":"m 492 0 q 430 39 448 0 l 66 827 q 64 880 54 853 q 100 918 74 906 q 152 920 125 930 q 190 884 178 910 l 492 231 l 793 884 q 831 920 805 910 q 884 918 858 930 q 919 880 909 906 q 917 827 929 853 l 553 39 q 492 0 535 0 z "},"W":{"ha":1347,"x_min":54,"x_max":1293,"o":"m 855 0 q 793 39 812 0 l 673 299 l 553 39 q 492 0 535 0 q 430 39 448 0 l 66 827 q 64 880 54 853 q 100 918 74 906 q 152 920 125 930 q 190 884 178 910 l 492 231 l 612 490 q 673 530 630 530 q 735 490 717 530 l 855 231 l 1157 884 q 1195 920 1168 910 q 1247 918 1221 930 q 1282 880 1273 906 q 1280 827 1293 853 l 917 39 q 855 0 899 0 z "},"X":{"ha":972,"x_min":54,"x_max":918,"o":"m 918 856 q 898 904 918 884 q 850 924 878 924 q 802 904 821 924 q 781 856 781 884 l 781 705 q 730 581 781 632 q 607 530 680 530 l 365 530 q 241 581 293 530 q 191 705 191 632 l 191 856 q 171 904 191 884 q 123 924 151 924 q 74 904 94 924 q 54 856 54 884 l 54 705 q 171 462 54 555 q 54 220 54 368 l 54 68 q 74 20 54 40 q 123 0 94 0 q 171 20 151 0 q 191 68 191 40 l 191 220 q 241 342 191 292 q 365 394 293 394 l 607 394 q 730 342 680 394 q 781 220 781 292 l 781 68 q 802 20 781 40 q 850 0 821 0 q 898 20 878 0 q 918 68 918 40 l 918 220 q 801 462 918 368 q 918 705 918 555 l 918 856 z "},"Y":{"ha":972,"x_min":54,"x_max":918,"o":"m 850 924 q 802 904 821 924 q 781 856 781 884 l 781 583 q 766 546 781 562 q 728 530 750 530 l 243 530 q 206 546 222 530 q 191 583 191 562 l 191 856 q 171 904 191 884 q 123 924 151 924 q 74 904 94 924 q 54 856 54 884 l 54 583 q 110 450 54 505 q 243 394 165 394 l 418 394 l 418 68 q 438 20 418 40 q 486 0 458 0 q 534 20 514 0 q 554 68 554 40 l 554 394 l 728 394 q 862 450 806 394 q 918 583 918 505 l 918 856 q 898 904 918 884 q 850 924 878 924 z "},"Z":{"ha":996,"x_min":54,"x_max":942,"o":"m 135 0 q 73 41 90 0 q 85 115 54 81 l 706 788 l 135 788 q 87 808 106 788 q 66 856 66 827 q 87 904 66 884 q 135 924 106 924 l 862 924 q 924 883 907 924 q 912 810 942 842 l 290 136 l 862 136 q 910 117 890 136 q 930 68 930 96 q 910 20 930 40 q 862 0 890 0 l 135 0 z "},"_":{"ha":608,"x_min":54,"x_max":554,"o":"m 123 0 q 74 20 94 0 q 54 68 54 40 q 74 117 54 96 q 123 136 94 136 l 486 136 q 534 117 514 136 q 554 68 554 96 q 534 20 554 40 q 486 0 514 0 l 123 0 z "},"`":{"ha":366,"x_min":54,"x_max":312,"o":"m 243 654 q 195 673 216 654 q 176 722 176 694 l 176 783 q 160 820 176 804 q 123 836 144 836 q 74 855 94 836 q 54 904 54 876 q 74 952 54 932 q 123 972 94 972 q 256 916 201 972 q 312 783 312 861 l 312 722 q 292 673 312 694 q 243 654 272 654 z "},"a":{"ha":972,"x_min":54,"x_max":918,"o":"m 191 530 l 191 614 q 241 736 191 686 q 365 788 293 788 l 607 788 q 730 736 680 788 q 781 614 781 686 l 781 530 l 191 530 m 365 924 q 145 833 237 924 q 54 614 54 742 l 54 68 q 74 20 54 40 q 123 0 94 0 q 171 20 151 0 q 191 68 191 40 l 191 394 l 781 394 l 781 68 q 802 20 781 40 q 850 0 821 0 q 898 20 878 0 q 918 68 918 40 l 918 614 q 827 833 918 742 q 607 924 736 924 l 365 924 z "},"b":{"ha":972,"x_min":54,"x_max":918,"o":"m 191 530 l 652 530 q 743 568 706 530 q 781 659 781 606 q 743 750 781 712 q 652 788 706 788 l 191 788 l 191 530 m 191 136 l 652 136 q 743 174 706 136 q 781 265 781 212 q 743 356 781 318 q 652 394 706 394 l 191 394 l 191 136 m 123 0 q 74 20 94 0 q 54 68 54 40 l 54 856 q 74 904 54 884 q 123 924 94 924 l 652 924 q 840 846 762 924 q 918 659 918 768 q 830 462 918 541 q 918 265 918 383 q 840 78 918 155 q 652 0 762 0 l 123 0 z "},"c":{"ha":972,"x_min":54,"x_max":918,"o":"m 243 0 q 110 56 165 0 q 54 189 54 111 l 54 734 q 110 869 54 813 q 243 924 165 924 l 728 924 q 862 869 806 924 q 918 734 918 813 l 918 705 q 898 656 918 676 q 850 636 878 636 q 802 656 821 636 q 781 705 781 676 l 781 734 q 766 772 781 757 q 728 788 750 788 l 243 788 q 206 772 222 788 q 191 734 191 757 l 191 189 q 206 152 191 168 q 243 136 222 136 l 728 136 q 766 152 750 136 q 781 189 781 168 l 781 220 q 802 268 781 248 q 850 288 821 288 q 898 268 878 288 q 918 220 918 248 l 918 189 q 862 56 918 111 q 728 0 806 0 l 243 0 z "},"d":{"ha":972,"x_min":54,"x_max":918,"o":"m 191 136 l 607 136 q 730 187 680 136 q 781 311 781 239 l 781 614 q 730 736 781 686 q 607 788 680 788 l 191 788 l 191 136 m 123 0 q 74 20 94 0 q 54 68 54 40 l 54 856 q 74 904 54 884 q 123 924 94 924 l 607 924 q 827 833 736 924 q 918 614 918 742 l 918 311 q 827 91 918 182 q 607 0 736 0 l 123 0 z "},"e":{"ha":972,"x_min":54,"x_max":918,"o":"m 850 394 q 898 414 878 394 q 918 462 918 434 q 898 510 918 490 q 850 530 878 530 l 191 530 l 191 788 l 850 788 q 898 808 878 788 q 918 856 918 827 q 898 904 918 884 q 850 924 878 924 l 123 924 q 74 904 94 924 q 54 856 54 884 l 54 68 q 74 20 54 40 q 123 0 94 0 l 850 0 q 898 20 878 0 q 918 68 918 40 q 898 117 918 96 q 850 136 878 136 l 191 136 l 191 394 l 850 394 z "},"f":{"ha":972,"x_min":54,"x_max":918,"o":"m 191 530 l 191 788 l 850 788 q 898 808 878 788 q 918 856 918 827 q 898 904 918 884 q 850 924 878 924 l 123 924 q 74 904 94 924 q 54 856 54 884 l 54 68 q 74 20 54 40 q 123 0 94 0 q 171 20 151 0 q 191 68 191 40 l 191 394 l 850 394 q 898 414 878 394 q 918 462 918 434 q 898 510 918 490 q 850 530 878 530 l 191 530 z "},"g":{"ha":972,"x_min":54,"x_max":918,"o":"m 850 636 q 898 656 878 636 q 918 705 918 676 l 918 734 q 862 869 918 813 q 728 924 806 924 l 243 924 q 110 869 165 924 q 54 734 54 813 l 54 189 q 110 56 54 111 q 243 0 165 0 l 728 0 q 862 56 806 0 q 918 189 918 111 l 918 462 q 898 510 918 490 q 850 530 878 530 l 425 530 q 377 510 397 530 q 357 462 357 490 q 377 414 357 434 q 425 394 397 394 l 781 394 l 781 189 q 766 152 781 168 q 728 136 750 136 l 243 136 q 206 152 222 136 q 191 189 191 168 l 191 734 q 206 772 191 757 q 243 788 222 788 l 728 788 q 766 772 750 788 q 781 734 781 757 l 781 705 q 802 656 781 676 q 850 636 821 636 z "},"h":{"ha":972,"x_min":54,"x_max":918,"o":"m 850 924 q 802 904 821 924 q 781 856 781 884 l 781 530 l 191 530 l 191 856 q 171 904 191 884 q 123 924 151 924 q 74 904 94 924 q 54 856 54 884 l 54 68 q 74 20 54 40 q 123 0 94 0 q 171 20 151 0 q 191 68 191 40 l 191 394 l 781 394 l 781 68 q 802 20 781 40 q 850 0 821 0 q 898 20 878 0 q 918 68 918 40 l 918 856 q 898 904 918 884 q 850 924 878 924 z "},"i":{"ha":245,"x_min":54,"x_max":191,"o":"m 123 0 q 74 20 94 0 q 54 68 54 40 l 54 856 q 74 904 54 884 q 123 924 94 924 q 171 904 151 924 q 191 856 191 884 l 191 68 q 171 20 191 40 q 123 0 151 0 z "},"j":{"ha":578,"x_min":54,"x_max":524,"o":"m 123 0 q 74 20 94 0 q 54 68 54 40 q 74 117 54 96 q 123 136 94 136 l 334 136 q 372 152 357 136 q 387 189 387 168 l 387 856 q 408 904 387 884 q 456 924 427 924 q 504 904 484 924 q 524 856 524 884 l 524 189 q 469 56 524 111 q 334 0 413 0 l 123 0 z "},"k":{"ha":972,"x_min":54,"x_max":918,"o":"m 918 856 q 898 904 918 884 q 850 924 878 924 q 802 904 821 924 q 781 856 781 884 l 781 705 q 730 581 781 632 q 607 530 680 530 l 191 530 l 191 856 q 171 904 191 884 q 123 924 151 924 q 74 904 94 924 q 54 856 54 884 l 54 68 q 74 20 54 40 q 123 0 94 0 q 171 20 151 0 q 191 68 191 40 l 191 394 l 607 394 q 730 342 680 394 q 781 220 781 292 l 781 68 q 802 20 781 40 q 850 0 821 0 q 898 20 878 0 q 918 68 918 40 l 918 220 q 801 462 918 368 q 918 705 918 555 l 918 856 z "},"l":{"ha":972,"x_min":54,"x_max":918,"o":"m 123 0 q 74 20 94 0 q 54 68 54 40 l 54 856 q 74 904 54 884 q 123 924 94 924 q 171 904 151 924 q 191 856 191 884 l 191 136 l 850 136 q 898 117 878 136 q 918 68 918 96 q 898 20 918 40 q 850 0 878 0 l 123 0 z "},"m":{"ha":1093,"x_min":54,"x_max":1039,"o":"m 970 0 q 922 20 943 0 q 903 68 903 40 l 903 700 l 593 412 q 547 394 573 394 q 500 412 519 394 l 191 700 l 191 68 q 171 20 191 40 q 123 0 151 0 q 74 20 94 0 q 54 68 54 40 l 54 856 q 95 918 54 901 q 169 906 136 936 l 547 555 l 924 906 q 998 918 957 936 q 1039 856 1039 901 l 1039 68 q 1019 20 1039 40 q 970 0 999 0 z "},"n":{"ha":972,"x_min":54,"x_max":918,"o":"m 850 0 q 800 22 820 0 l 191 682 l 191 68 q 171 20 191 40 q 123 0 151 0 q 74 20 94 0 q 54 68 54 40 l 54 856 q 98 920 54 903 q 172 902 141 937 l 781 243 l 781 856 q 802 904 781 884 q 850 924 821 924 q 898 904 878 924 q 918 856 918 884 l 918 68 q 874 5 918 22 q 850 0 863 0 z "},"o":{"ha":972,"x_min":54,"x_max":918,"o":"m 243 788 q 206 772 222 788 q 191 734 191 757 l 191 189 q 206 152 191 168 q 243 136 222 136 l 728 136 q 766 152 750 136 q 781 189 781 168 l 781 734 q 766 772 781 757 q 728 788 750 788 l 243 788 m 243 0 q 110 56 165 0 q 54 189 54 111 l 54 734 q 110 869 54 813 q 243 924 165 924 l 728 924 q 862 869 806 924 q 918 734 918 813 l 918 189 q 862 56 918 111 q 728 0 806 0 l 243 0 z "},"p":{"ha":972,"x_min":54,"x_max":918,"o":"m 191 530 l 652 530 q 743 568 706 530 q 781 659 781 606 q 743 750 781 712 q 652 788 706 788 l 191 788 l 191 530 m 123 0 q 74 20 94 0 q 54 68 54 40 l 54 856 q 74 904 54 884 q 123 924 94 924 l 652 924 q 840 846 762 924 q 918 659 918 768 q 840 471 918 549 q 652 394 762 394 l 191 394 l 191 68 q 171 20 191 40 q 123 0 151 0 z "},"q":{"ha":1033,"x_min":54,"x_max":979,"o":"m 243 136 q 206 152 222 136 q 191 190 191 168 l 191 735 q 206 772 191 757 q 243 788 222 788 l 728 788 q 766 772 750 788 q 781 735 781 757 l 781 233 l 716 298 q 668 318 696 318 q 620 298 640 318 q 600 250 600 279 q 620 202 600 222 l 685 136 l 243 136 m 901 113 q 918 190 918 149 l 918 735 q 862 869 918 813 q 728 924 806 924 l 243 924 q 110 869 165 924 q 54 735 54 813 l 54 190 q 110 56 54 111 q 243 0 165 0 l 728 0 q 805 16 768 0 l 862 -41 q 910 -60 882 -60 q 958 -41 939 -60 q 979 8 979 -20 q 958 56 979 36 l 901 113 z "},"r":{"ha":972,"x_min":54,"x_max":918,"o":"m 191 530 l 191 788 l 652 788 q 743 750 706 788 q 781 659 781 712 q 743 568 781 606 q 652 530 706 530 l 191 530 m 815 450 q 918 659 918 530 q 840 846 918 768 q 652 924 762 924 l 123 924 q 74 904 94 924 q 54 856 54 884 l 54 68 q 74 20 54 40 q 123 0 94 0 q 171 20 151 0 q 191 68 191 40 l 191 394 l 607 394 q 730 342 680 394 q 781 220 781 292 l 781 68 q 802 20 781 40 q 850 0 821 0 q 898 20 878 0 q 918 68 918 40 l 918 220 q 815 450 918 357 z "},"s":{"ha":972,"x_min":54,"x_max":918,"o":"m 123 0 q 74 20 94 0 q 54 68 54 40 q 74 117 54 96 q 123 136 94 136 l 652 136 q 743 174 706 136 q 781 265 781 212 q 743 356 781 318 q 652 394 706 394 l 319 394 q 132 471 210 394 q 54 659 54 549 q 132 846 54 768 q 319 924 210 924 l 850 924 q 898 904 878 924 q 918 856 918 884 q 898 808 918 827 q 850 788 878 788 l 319 788 q 229 750 266 788 q 191 659 191 712 q 229 568 191 606 q 319 530 266 530 l 652 530 q 840 452 762 530 q 918 265 918 375 q 840 78 918 155 q 652 0 762 0 l 123 0 z "},"t":{"ha":972,"x_min":54,"x_max":918,"o":"m 123 924 q 74 904 94 924 q 54 856 54 884 q 74 808 54 827 q 123 788 94 788 l 433 788 l 433 68 q 453 20 433 40 q 501 0 473 0 q 549 20 530 0 q 569 68 569 40 l 569 788 l 850 788 q 898 808 878 788 q 918 856 918 827 q 898 904 918 884 q 850 924 878 924 l 123 924 z "},"u":{"ha":972,"x_min":54,"x_max":918,"o":"m 365 0 q 145 91 237 0 q 54 311 54 182 l 54 856 q 74 904 54 884 q 123 924 94 924 q 171 904 151 924 q 191 856 191 884 l 191 311 q 241 187 191 239 q 365 136 293 136 l 607 136 q 730 187 680 136 q 781 311 781 239 l 781 856 q 802 904 781 884 q 850 924 821 924 q 898 904 878 924 q 918 856 918 884 l 918 311 q 827 91 918 182 q 607 0 736 0 l 365 0 z "},"v":{"ha":983,"x_min":54,"x_max":929,"o":"m 492 0 q 430 39 448 0 l 66 827 q 64 880 54 853 q 100 918 74 906 q 152 920 125 930 q 190 884 178 910 l 492 231 l 793 884 q 831 920 805 910 q 884 918 858 930 q 919 880 909 906 q 917 827 929 853 l 553 39 q 492 0 535 0 z "},"w":{"ha":1347,"x_min":54,"x_max":1293,"o":"m 855 0 q 793 39 812 0 l 673 299 l 553 39 q 492 0 535 0 q 430 39 448 0 l 66 827 q 64 880 54 853 q 100 918 74 906 q 152 920 125 930 q 190 884 178 910 l 492 231 l 612 490 q 673 530 630 530 q 735 490 717 530 l 855 231 l 1157 884 q 1195 920 1168 910 q 1247 918 1221 930 q 1282 880 1273 906 q 1280 827 1293 853 l 917 39 q 855 0 899 0 z "},"x":{"ha":972,"x_min":54,"x_max":918,"o":"m 918 856 q 898 904 918 884 q 850 924 878 924 q 802 904 821 924 q 781 856 781 884 l 781 705 q 730 581 781 632 q 607 530 680 530 l 365 530 q 241 581 293 530 q 191 705 191 632 l 191 856 q 171 904 191 884 q 123 924 151 924 q 74 904 94 924 q 54 856 54 884 l 54 705 q 171 462 54 555 q 54 220 54 368 l 54 68 q 74 20 54 40 q 123 0 94 0 q 171 20 151 0 q 191 68 191 40 l 191 220 q 241 342 191 292 q 365 394 293 394 l 607 394 q 730 342 680 394 q 781 220 781 292 l 781 68 q 802 20 781 40 q 850 0 821 0 q 898 20 878 0 q 918 68 918 40 l 918 220 q 801 462 918 368 q 918 705 918 555 l 918 856 z "},"y":{"ha":972,"x_min":54,"x_max":918,"o":"m 850 924 q 802 904 821 924 q 781 856 781 884 l 781 583 q 766 546 781 562 q 728 530 750 530 l 243 530 q 206 546 222 530 q 191 583 191 562 l 191 856 q 171 904 191 884 q 123 924 151 924 q 74 904 94 924 q 54 856 54 884 l 54 583 q 110 450 54 505 q 243 394 165 394 l 728 394 q 781 401 755 394 l 781 189 q 766 152 781 168 q 728 136 750 136 l 243 136 q 206 152 222 136 q 191 189 191 168 l 191 220 q 171 268 191 248 q 123 288 151 288 q 74 268 94 288 q 54 220 54 248 l 54 189 q 110 56 54 111 q 243 0 165 0 l 728 0 q 862 56 806 0 q 918 189 918 111 l 918 856 q 898 904 918 884 q 850 924 878 924 z "},"z":{"ha":996,"x_min":54,"x_max":942,"o":"m 135 0 q 73 41 90 0 q 85 115 54 81 l 706 788 l 135 788 q 87 808 106 788 q 66 856 66 827 q 87 904 66 884 q 135 924 106 924 l 862 924 q 924 883 907 924 q 912 810 942 842 l 290 136 l 862 136 q 910 117 890 136 q 930 68 930 96 q 910 20 930 40 q 862 0 890 0 l 135 0 z "},"À":{"ha":972,"x_min":54,"x_max":918,"o":"m 191 530 l 191 614 q 241 736 191 686 q 365 788 293 788 l 607 788 q 730 736 680 788 q 781 614 781 686 l 781 530 l 191 530 m 365 924 q 145 833 237 924 q 54 614 54 742 l 54 68 q 74 20 54 40 q 123 0 94 0 q 171 20 151 0 q 191 68 191 40 l 191 394 l 781 394 l 781 68 q 802 20 781 40 q 850 0 821 0 q 898 20 878 0 q 918 68 918 40 l 918 614 q 827 833 918 742 q 607 924 736 924 l 365 924 m 509 968 q 448 1006 467 968 l 402 1097 q 399 1149 390 1122 q 433 1188 408 1176 q 485 1192 458 1201 q 524 1158 511 1183 l 570 1067 q 573 1015 583 1042 q 539 976 564 988 q 509 968 525 968 z "},"Á":{"ha":972,"x_min":54,"x_max":918,"o":"m 191 530 l 191 614 q 241 736 191 686 q 365 788 293 788 l 607 788 q 730 736 680 788 q 781 614 781 686 l 781 530 l 191 530 m 365 924 q 145 833 237 924 q 54 614 54 742 l 54 68 q 74 20 54 40 q 123 0 94 0 q 171 20 151 0 q 191 68 191 40 l 191 394 l 781 394 l 781 68 q 802 20 781 40 q 850 0 821 0 q 898 20 878 0 q 918 68 918 40 l 918 614 q 827 833 918 742 q 607 924 736 924 l 365 924 m 463 968 q 433 976 447 968 q 399 1015 408 988 q 402 1067 390 1042 l 448 1158 q 487 1192 460 1183 q 539 1188 514 1201 q 573 1149 564 1176 q 570 1097 583 1122 l 524 1006 q 463 968 505 968 z "},"Â":{"ha":972,"x_min":54,"x_max":918,"o":"m 191 530 l 191 614 q 241 736 191 686 q 365 788 293 788 l 607 788 q 730 736 680 788 q 781 614 781 686 l 781 530 l 191 530 m 365 924 q 145 833 237 924 q 54 614 54 742 l 54 68 q 74 20 54 40 q 123 0 94 0 q 171 20 151 0 q 191 68 191 40 l 191 394 l 781 394 l 781 68 q 802 20 781 40 q 850 0 821 0 q 898 20 878 0 q 918 68 918 40 l 918 614 q 827 833 918 742 q 607 924 736 924 l 365 924 m 607 968 q 566 982 585 968 l 486 1042 l 406 982 q 355 969 383 965 q 310 996 327 973 q 297 1046 294 1018 q 324 1091 301 1074 l 445 1182 q 527 1182 486 1213 l 648 1091 q 675 1046 671 1074 q 662 996 679 1018 q 607 968 642 968 z "},"Ã":{"ha":972,"x_min":54,"x_max":918,"o":"m 191 530 l 191 614 q 241 736 191 686 q 365 788 293 788 l 607 788 q 730 736 680 788 q 781 614 781 686 l 781 530 l 191 530 m 365 924 q 145 833 237 924 q 54 614 54 742 l 54 68 q 74 20 54 40 q 123 0 94 0 q 171 20 151 0 q 191 68 191 40 l 191 394 l 781 394 l 781 68 q 802 20 781 40 q 850 0 821 0 q 898 20 878 0 q 918 68 918 40 l 918 614 q 827 833 918 742 q 607 924 736 924 l 365 924 m 259 968 q 245 970 252 968 q 202 1000 218 976 q 193 1050 186 1023 q 278 1173 210 1133 q 418 1185 343 1209 q 477 1156 441 1177 q 509 1140 499 1143 q 577 1131 543 1127 q 663 1175 628 1138 q 710 1197 682 1196 q 759 1179 739 1198 q 781 1131 780 1159 q 762 1082 782 1103 q 594 996 694 1008 q 460 1013 526 987 q 410 1038 441 1020 q 374 1055 385 1052 q 346 1054 358 1061 q 326 1023 331 1045 q 302 983 321 999 q 259 968 283 968 z "},"Ä":{"ha":972,"x_min":54,"x_max":918,"o":"m 191 530 l 191 614 q 241 736 191 686 q 365 788 293 788 l 607 788 q 730 736 680 788 q 781 614 781 686 l 781 530 l 191 530 m 365 924 q 145 833 237 924 q 54 614 54 742 l 54 68 q 74 20 54 40 q 123 0 94 0 q 171 20 151 0 q 191 68 191 40 l 191 394 l 781 394 l 781 68 q 802 20 781 40 q 850 0 821 0 q 898 20 878 0 q 918 68 918 40 l 918 614 q 827 833 918 742 q 607 924 736 924 l 365 924 m 304 999 q 256 1019 276 999 q 236 1067 236 1039 q 256 1115 236 1095 q 304 1135 276 1135 q 353 1115 332 1135 q 372 1067 372 1095 q 353 1019 372 1039 q 304 999 332 999 m 668 999 q 620 1019 640 999 q 600 1067 600 1038 q 620 1115 600 1095 q 668 1135 640 1135 q 716 1115 696 1135 q 736 1067 736 1095 q 716 1019 736 1038 q 668 999 696 999 z "},"Å":{"ha":972,"x_min":54,"x_max":918,"o":"m 191 530 l 191 614 q 241 736 191 686 q 365 788 293 788 l 607 788 q 730 736 680 788 q 781 614 781 686 l 781 530 l 191 530 m 486 1007 q 507 998 498 1007 q 516 977 516 989 q 507 956 516 964 q 486 947 498 947 q 465 956 473 947 q 456 977 456 964 q 465 998 456 989 q 486 1007 473 1007 m 612 924 q 623 977 623 949 q 583 1074 623 1034 q 486 1114 543 1114 q 390 1074 429 1114 q 350 977 350 1034 q 360 924 350 949 q 144 831 233 922 q 54 614 54 741 l 54 68 q 74 20 54 40 q 123 0 94 0 q 171 20 151 0 q 191 68 191 40 l 191 394 l 781 394 l 781 68 q 802 20 781 40 q 850 0 821 0 q 898 20 878 0 q 918 68 918 40 l 918 614 q 828 831 918 741 q 612 924 739 922 z "},"Æ":{"ha":1820,"x_min":54,"x_max":1766,"o":"m 1698 788 q 1746 808 1726 788 q 1766 856 1766 827 q 1746 904 1766 884 q 1698 924 1726 924 l 970 924 q 922 904 943 924 q 903 856 903 884 q 922 808 903 827 q 970 788 943 788 l 1698 788 m 191 614 q 241 736 191 686 q 365 788 293 788 l 607 788 q 730 736 680 788 q 781 614 781 686 l 781 530 l 191 530 l 191 614 m 1698 394 q 1746 414 1726 394 q 1766 462 1766 434 q 1746 510 1766 490 q 1698 530 1726 530 l 918 530 l 918 614 q 827 833 918 742 q 607 924 736 924 l 365 924 q 145 833 237 924 q 54 614 54 742 l 54 68 q 74 20 54 40 q 123 0 94 0 q 171 20 151 0 q 191 68 191 40 l 191 394 l 781 394 l 781 68 q 802 20 781 40 q 850 0 821 0 l 1698 0 q 1746 20 1726 0 q 1766 68 1766 40 q 1746 117 1766 96 q 1698 136 1726 136 l 918 136 l 918 394 l 1698 394 z "},"Ç":{"ha":972,"x_min":54,"x_max":918,"o":"m 850 637 q 898 656 878 637 q 918 705 918 677 l 918 735 q 862 869 918 813 q 728 924 806 924 l 243 924 q 110 869 165 924 q 54 735 54 813 l 54 190 q 110 56 54 111 q 243 1 165 1 l 418 1 l 418 -52 q 438 -101 418 -81 q 486 -121 458 -121 q 534 -101 514 -121 q 554 -52 554 -81 l 554 1 l 728 1 q 862 56 806 1 q 918 190 918 111 l 918 220 q 898 269 918 248 q 850 288 878 288 q 802 269 821 288 q 781 220 781 248 l 781 190 q 766 153 781 168 q 728 137 750 137 l 243 137 q 206 153 222 137 q 191 190 191 168 l 191 735 q 206 772 191 757 q 243 788 222 788 l 728 788 q 766 772 750 788 q 781 735 781 757 l 781 705 q 802 656 781 677 q 850 637 821 637 z "},"È":{"ha":972,"x_min":54,"x_max":918,"o":"m 850 394 q 898 414 878 394 q 918 462 918 434 q 898 510 918 490 q 850 530 878 530 l 191 530 l 191 788 l 850 788 q 898 808 878 788 q 918 856 918 827 q 898 904 918 884 q 850 924 878 924 l 123 924 q 74 904 94 924 q 54 856 54 884 l 54 68 q 74 20 54 40 q 123 0 94 0 l 850 0 q 898 20 878 0 q 918 68 918 40 q 898 117 918 96 q 850 136 878 136 l 191 136 l 191 394 l 850 394 m 509 968 q 448 1006 467 968 l 402 1097 q 399 1149 390 1122 q 433 1188 408 1176 q 485 1192 458 1201 q 524 1158 511 1183 l 570 1067 q 573 1015 583 1042 q 539 976 564 988 q 509 968 525 968 z "},"É":{"ha":972,"x_min":54,"x_max":918,"o":"m 850 394 q 898 414 878 394 q 918 462 918 434 q 898 510 918 490 q 850 530 878 530 l 191 530 l 191 788 l 850 788 q 898 808 878 788 q 918 856 918 827 q 898 904 918 884 q 850 924 878 924 l 123 924 q 74 904 94 924 q 54 856 54 884 l 54 68 q 74 20 54 40 q 123 0 94 0 l 850 0 q 898 20 878 0 q 918 68 918 40 q 898 117 918 96 q 850 136 878 136 l 191 136 l 191 394 l 850 394 m 463 968 q 433 976 447 968 q 399 1015 408 988 q 402 1067 390 1042 l 448 1158 q 487 1192 460 1183 q 539 1188 514 1201 q 573 1149 564 1176 q 570 1097 583 1122 l 524 1006 q 463 968 505 968 z "},"Ê":{"ha":972,"x_min":54,"x_max":918,"o":"m 850 394 q 898 414 878 394 q 918 462 918 434 q 898 510 918 490 q 850 530 878 530 l 191 530 l 191 788 l 850 788 q 898 808 878 788 q 918 856 918 827 q 898 904 918 884 q 850 924 878 924 l 123 924 q 74 904 94 924 q 54 856 54 884 l 54 68 q 74 20 54 40 q 123 0 94 0 l 850 0 q 898 20 878 0 q 918 68 918 40 q 898 117 918 96 q 850 136 878 136 l 191 136 l 191 394 l 850 394 m 607 968 q 566 982 585 968 l 486 1042 l 406 982 q 355 969 383 965 q 310 996 327 973 q 297 1046 294 1018 q 324 1091 301 1074 l 445 1182 q 527 1182 486 1213 l 648 1091 q 675 1046 671 1074 q 662 996 679 1018 q 607 968 642 968 z "},"Ë":{"ha":972,"x_min":54,"x_max":918,"o":"m 850 394 q 898 414 878 394 q 918 462 918 434 q 898 510 918 490 q 850 530 878 530 l 191 530 l 191 788 l 850 788 q 898 808 878 788 q 918 856 918 827 q 898 904 918 884 q 850 924 878 924 l 123 924 q 74 904 94 924 q 54 856 54 884 l 54 68 q 74 20 54 40 q 123 0 94 0 l 850 0 q 898 20 878 0 q 918 68 918 40 q 898 117 918 96 q 850 136 878 136 l 191 136 l 191 394 l 850 394 m 304 999 q 256 1019 276 999 q 236 1067 236 1038 q 256 1115 236 1095 q 304 1135 276 1135 q 353 1115 332 1135 q 372 1067 372 1095 q 353 1019 372 1039 q 304 999 332 999 m 668 999 q 620 1019 640 999 q 600 1067 600 1039 q 620 1115 600 1095 q 668 1135 640 1135 q 716 1115 696 1135 q 736 1067 736 1095 q 716 1019 736 1039 q 668 999 696 999 z "},"Ì":{"ha":301,"x_min":54,"x_max":247,"o":"m 151 0 q 102 20 123 0 q 83 68 83 40 l 83 856 q 102 904 83 884 q 151 924 123 924 q 199 904 179 924 q 219 856 219 884 l 219 68 q 199 20 219 40 q 151 0 179 0 m 174 968 q 113 1006 132 968 l 67 1097 q 63 1149 54 1122 q 98 1188 73 1176 q 150 1192 123 1201 q 189 1158 176 1183 l 235 1067 q 238 1015 247 1042 q 204 976 229 988 q 174 968 190 968 z "},"Í":{"ha":301,"x_min":54,"x_max":247,"o":"m 151 0 q 102 20 123 0 q 83 68 83 40 l 83 856 q 102 904 83 884 q 151 924 123 924 q 199 904 179 924 q 219 856 219 884 l 219 68 q 199 20 219 40 q 151 0 179 0 m 128 968 q 98 976 112 968 q 63 1015 73 988 q 67 1067 54 1042 l 113 1158 q 152 1192 125 1183 q 204 1188 179 1201 q 238 1149 229 1176 q 235 1097 247 1122 l 189 1006 q 128 968 170 968 z "},"Î":{"ha":494,"x_min":54,"x_max":439,"o":"m 247 0 q 199 20 219 0 q 179 68 179 40 l 179 856 q 199 904 179 884 q 247 924 219 924 q 295 904 275 924 q 315 856 315 884 l 315 68 q 295 20 315 40 q 247 0 275 0 m 368 968 q 328 982 346 968 l 247 1042 l 167 982 q 116 969 144 965 q 71 996 88 973 q 58 1046 54 1018 q 85 1091 62 1074 l 206 1182 q 288 1182 247 1213 l 409 1091 q 436 1046 432 1074 q 422 996 439 1018 q 368 968 402 968 z "},"Ï":{"ha":396,"x_min":54,"x_max":342,"o":"m 198 0 q 150 20 170 0 q 130 68 130 40 l 130 856 q 150 904 130 884 q 198 924 170 924 q 246 904 227 924 q 267 856 267 884 l 267 68 q 246 20 267 40 q 198 0 227 0 m 274 999 q 226 1019 245 999 q 205 1067 205 1039 q 226 1115 205 1095 q 274 1135 245 1135 q 322 1115 302 1135 q 342 1067 342 1095 q 322 1019 342 1039 q 274 999 302 999 m 123 999 q 74 1019 94 999 q 54 1067 54 1039 q 74 1115 54 1095 q 123 1135 94 1135 q 171 1115 151 1135 q 191 1067 191 1095 q 171 1019 191 1039 q 123 999 151 999 z "},"Ñ":{"ha":972,"x_min":54,"x_max":918,"o":"m 850 0 q 800 22 820 0 l 191 682 l 191 68 q 171 20 191 40 q 123 0 151 0 q 74 20 94 0 q 54 68 54 40 l 54 856 q 98 920 54 903 q 172 902 141 937 l 781 243 l 781 856 q 802 904 781 884 q 850 924 821 924 q 898 904 878 924 q 918 856 918 884 l 918 68 q 874 5 918 22 q 850 0 863 0 m 259 968 q 245 970 252 968 q 202 1000 218 976 q 193 1050 186 1023 q 278 1173 210 1133 q 418 1185 343 1209 q 477 1156 441 1177 q 509 1140 499 1143 q 577 1131 543 1127 q 663 1175 628 1138 q 710 1197 682 1196 q 759 1179 739 1198 q 781 1131 780 1159 q 762 1082 782 1103 q 594 996 694 1008 q 460 1013 526 987 q 410 1038 441 1020 q 374 1055 385 1052 q 346 1054 358 1061 q 326 1023 331 1045 q 302 983 321 999 q 259 968 283 968 z "},"Ò":{"ha":972,"x_min":54,"x_max":918,"o":"m 243 788 q 206 772 222 788 q 191 734 191 757 l 191 189 q 206 152 191 168 q 243 136 222 136 l 728 136 q 766 152 750 136 q 781 189 781 168 l 781 734 q 766 772 781 757 q 728 788 750 788 l 243 788 m 243 0 q 110 56 165 0 q 54 189 54 111 l 54 734 q 110 869 54 813 q 243 924 165 924 l 728 924 q 862 869 806 924 q 918 734 918 813 l 918 189 q 862 56 918 111 q 728 0 806 0 l 243 0 m 516 970 q 455 1007 474 970 l 410 1098 q 406 1150 397 1123 q 440 1190 415 1177 q 492 1193 466 1202 q 532 1159 519 1184 l 577 1068 q 581 1016 590 1043 q 547 977 572 989 q 516 970 532 970 z "},"Ó":{"ha":972,"x_min":54,"x_max":918,"o":"m 243 788 q 206 772 222 788 q 191 734 191 757 l 191 189 q 206 152 191 168 q 243 136 222 136 l 728 136 q 766 152 750 136 q 781 189 781 168 l 781 734 q 766 772 781 757 q 728 788 750 788 l 243 788 m 243 0 q 110 56 165 0 q 54 189 54 111 l 54 734 q 110 869 54 813 q 243 924 165 924 l 728 924 q 862 869 806 924 q 918 734 918 813 l 918 189 q 862 56 918 111 q 728 0 806 0 l 243 0 m 456 970 q 425 977 439 970 q 391 1016 400 989 q 395 1068 382 1043 l 440 1159 q 479 1193 453 1184 q 532 1190 507 1202 q 566 1150 557 1177 q 562 1098 574 1123 l 517 1007 q 456 970 498 970 z "},"Ô":{"ha":972,"x_min":54,"x_max":918,"o":"m 243 788 q 206 772 222 788 q 191 734 191 757 l 191 189 q 206 152 191 168 q 243 136 222 136 l 728 136 q 766 152 750 136 q 781 189 781 168 l 781 734 q 766 772 781 757 q 728 788 750 788 l 243 788 m 243 0 q 110 56 165 0 q 54 189 54 111 l 54 734 q 110 869 54 813 q 243 924 165 924 l 728 924 q 862 869 806 924 q 918 734 918 813 l 918 189 q 862 56 918 111 q 728 0 806 0 l 243 0 m 607 970 q 566 983 585 970 l 486 1043 l 406 983 q 355 970 383 966 q 310 997 327 974 q 297 1047 294 1019 q 324 1092 301 1075 l 445 1183 q 527 1183 486 1214 l 648 1092 q 675 1047 671 1075 q 662 997 679 1019 q 607 970 642 970 z "},"Õ":{"ha":972,"x_min":54,"x_max":918,"o":"m 243 788 q 206 772 222 788 q 191 734 191 757 l 191 189 q 206 152 191 168 q 243 136 222 136 l 728 136 q 766 152 750 136 q 781 189 781 168 l 781 734 q 766 772 781 757 q 728 788 750 788 l 243 788 m 243 0 q 110 56 165 0 q 54 189 54 111 l 54 734 q 110 869 54 813 q 243 924 165 924 l 728 924 q 862 869 806 924 q 918 734 918 813 l 918 189 q 862 56 918 111 q 728 0 806 0 l 243 0 m 259 970 q 245 971 252 970 q 202 1000 218 977 q 193 1052 186 1024 q 278 1173 210 1134 q 418 1185 343 1211 q 477 1157 441 1178 q 509 1141 499 1145 q 577 1133 543 1128 q 663 1176 628 1139 q 710 1198 682 1197 q 759 1179 739 1199 q 781 1132 780 1160 q 762 1083 782 1104 q 594 997 694 1010 q 460 1014 526 989 q 410 1039 441 1021 q 374 1057 385 1053 q 346 1055 358 1062 q 326 1023 331 1046 q 302 985 321 1000 q 259 970 283 970 z "},"Ö":{"ha":972,"x_min":54,"x_max":918,"o":"m 304 1000 q 256 1020 276 1000 q 236 1068 236 1040 q 256 1116 236 1096 q 304 1136 276 1136 q 353 1116 332 1136 q 372 1068 372 1096 q 353 1020 372 1040 q 304 1000 332 1000 m 668 1000 q 620 1020 640 1000 q 600 1068 600 1040 q 620 1116 600 1096 q 668 1136 640 1136 q 716 1116 696 1136 q 736 1068 736 1096 q 716 1020 736 1040 q 668 1000 696 1000 m 243 788 q 206 772 222 788 q 191 734 191 757 l 191 189 q 206 152 191 168 q 243 136 222 136 l 728 136 q 766 152 750 136 q 781 189 781 168 l 781 734 q 766 772 781 757 q 728 788 750 788 l 243 788 m 243 0 q 110 56 165 0 q 54 189 54 111 l 54 734 q 110 869 54 813 q 243 924 165 924 l 728 924 q 862 869 806 924 q 918 734 918 813 l 918 189 q 862 56 918 111 q 728 0 806 0 l 243 0 z "},"Ø":{"ha":1095,"x_min":54,"x_max":1040,"o":"m 843 189 q 827 152 843 168 q 789 136 812 136 l 305 136 q 297 137 302 136 l 843 644 l 843 189 m 252 734 q 267 772 252 757 q 305 788 283 788 l 789 788 q 797 787 793 788 l 252 281 l 252 734 m 1021 902 q 974 924 1002 923 q 925 906 945 925 l 903 886 q 789 924 853 924 l 305 924 q 171 869 227 924 q 115 734 115 813 l 115 189 q 119 157 115 173 l 77 118 q 55 71 56 99 q 73 22 54 43 q 123 0 94 0 q 170 18 150 0 l 191 38 q 305 0 241 0 l 789 0 q 924 56 868 0 q 979 189 979 111 l 979 734 q 976 767 979 751 l 1018 806 q 1040 853 1038 825 q 1021 902 1040 882 z "},"Ù":{"ha":972,"x_min":54,"x_max":918,"o":"m 365 0 q 145 91 237 0 q 54 311 54 182 l 54 856 q 74 904 54 884 q 123 924 94 924 q 171 904 151 924 q 191 856 191 884 l 191 311 q 241 187 191 239 q 365 136 293 136 l 607 136 q 730 187 680 136 q 781 311 781 239 l 781 856 q 802 904 781 884 q 850 924 821 924 q 898 904 878 924 q 918 856 918 884 l 918 311 q 827 91 918 182 q 607 0 736 0 l 365 0 m 509 970 q 448 1007 467 970 l 402 1098 q 399 1150 390 1123 q 433 1190 408 1177 q 485 1193 458 1202 q 524 1159 511 1184 l 570 1068 q 573 1016 583 1043 q 539 977 564 989 q 509 970 525 970 z "},"Ú":{"ha":972,"x_min":54,"x_max":918,"o":"m 365 0 q 145 91 237 0 q 54 311 54 182 l 54 856 q 74 904 54 884 q 123 924 94 924 q 171 904 151 924 q 191 856 191 884 l 191 311 q 241 187 191 239 q 365 136 293 136 l 607 136 q 730 187 680 136 q 781 311 781 239 l 781 856 q 802 904 781 884 q 850 924 821 924 q 898 904 878 924 q 918 856 918 884 l 918 311 q 827 91 918 182 q 607 0 736 0 l 365 0 m 463 970 q 433 977 447 970 q 399 1016 408 989 q 402 1068 390 1043 l 448 1159 q 487 1193 460 1184 q 539 1190 514 1202 q 573 1150 564 1177 q 570 1098 583 1123 l 524 1007 q 463 970 505 970 z "},"Û":{"ha":972,"x_min":54,"x_max":918,"o":"m 365 0 q 145 91 237 0 q 54 311 54 182 l 54 856 q 74 904 54 884 q 123 924 94 924 q 171 904 151 924 q 191 856 191 884 l 191 311 q 241 187 191 239 q 365 136 293 136 l 607 136 q 730 187 680 136 q 781 311 781 239 l 781 856 q 802 904 781 884 q 850 924 821 924 q 898 904 878 924 q 918 856 918 884 l 918 311 q 827 91 918 182 q 607 0 736 0 l 365 0 m 607 970 q 566 983 585 970 l 486 1043 l 406 983 q 355 970 383 966 q 310 997 327 974 q 297 1047 294 1019 q 324 1092 301 1075 l 445 1183 q 527 1183 486 1214 l 648 1092 q 675 1047 671 1075 q 662 997 679 1019 q 607 970 642 970 z "},"Ü":{"ha":972,"x_min":54,"x_max":918,"o":"m 365 0 q 145 91 237 0 q 54 311 54 182 l 54 856 q 74 904 54 884 q 123 924 94 924 q 171 904 151 924 q 191 856 191 884 l 191 311 q 241 187 191 239 q 365 136 293 136 l 607 136 q 730 187 680 136 q 781 311 781 239 l 781 856 q 802 904 781 884 q 850 924 821 924 q 898 904 878 924 q 918 856 918 884 l 918 311 q 827 91 918 182 q 607 0 736 0 l 365 0 m 304 1000 q 256 1020 276 1000 q 236 1068 236 1040 q 256 1116 236 1096 q 304 1136 276 1136 q 353 1116 332 1136 q 372 1068 372 1096 q 353 1020 372 1040 q 304 1000 332 1000 m 668 1000 q 620 1020 640 1000 q 600 1068 600 1040 q 620 1116 600 1096 q 668 1136 640 1136 q 716 1116 696 1136 q 736 1068 736 1096 q 716 1020 736 1040 q 668 1000 696 1000 z "},"Ý":{"ha":972,"x_min":54,"x_max":918,"o":"m 850 924 q 802 904 821 924 q 781 856 781 884 l 781 583 q 766 546 781 562 q 728 530 750 530 l 243 530 q 206 546 222 530 q 191 583 191 562 l 191 856 q 171 904 191 884 q 123 924 151 924 q 74 904 94 924 q 54 856 54 884 l 54 583 q 110 450 54 505 q 243 394 165 394 l 728 394 q 781 401 755 394 l 781 189 q 766 152 781 168 q 728 136 750 136 l 243 136 q 206 152 222 136 q 191 189 191 168 l 191 220 q 171 268 191 248 q 123 288 151 288 q 74 268 94 288 q 54 220 54 248 l 54 189 q 110 56 54 111 q 243 0 165 0 l 728 0 q 862 56 806 0 q 918 189 918 111 l 918 856 q 898 904 918 884 q 850 924 878 924 m 463 968 q 433 976 447 968 q 399 1015 408 988 q 402 1067 390 1042 l 448 1158 q 487 1192 460 1183 q 539 1188 514 1201 q 573 1149 564 1176 q 570 1097 583 1122 l 524 1006 q 463 968 505 968 z "},"à":{"ha":972,"x_min":54,"x_max":918,"o":"m 191 530 l 191 614 q 241 736 191 686 q 365 788 293 788 l 607 788 q 730 736 680 788 q 781 614 781 686 l 781 530 l 191 530 m 365 924 q 145 833 237 924 q 54 614 54 742 l 54 68 q 74 20 54 40 q 123 0 94 0 q 171 20 151 0 q 191 68 191 40 l 191 394 l 781 394 l 781 68 q 802 20 781 40 q 850 0 821 0 q 898 20 878 0 q 918 68 918 40 l 918 614 q 827 833 918 742 q 607 924 736 924 l 365 924 m 509 968 q 448 1006 467 968 l 402 1097 q 399 1149 390 1122 q 433 1188 408 1176 q 485 1192 458 1201 q 524 1158 511 1183 l 570 1067 q 573 1015 583 1042 q 539 976 564 988 q 509 968 525 968 z "},"á":{"ha":972,"x_min":54,"x_max":918,"o":"m 191 530 l 191 614 q 241 736 191 686 q 365 788 293 788 l 607 788 q 730 736 680 788 q 781 614 781 686 l 781 530 l 191 530 m 365 924 q 145 833 237 924 q 54 614 54 742 l 54 68 q 74 20 54 40 q 123 0 94 0 q 171 20 151 0 q 191 68 191 40 l 191 394 l 781 394 l 781 68 q 802 20 781 40 q 850 0 821 0 q 898 20 878 0 q 918 68 918 40 l 918 614 q 827 833 918 742 q 607 924 736 924 l 365 924 m 463 968 q 433 976 447 968 q 399 1015 408 988 q 402 1067 390 1042 l 448 1158 q 487 1192 460 1183 q 539 1188 514 1201 q 573 1149 564 1176 q 570 1097 583 1122 l 524 1006 q 463 968 505 968 z "},"â":{"ha":972,"x_min":54,"x_max":918,"o":"m 191 530 l 191 614 q 241 736 191 686 q 365 788 293 788 l 607 788 q 730 736 680 788 q 781 614 781 686 l 781 530 l 191 530 m 365 924 q 145 833 237 924 q 54 614 54 742 l 54 68 q 74 20 54 40 q 123 0 94 0 q 171 20 151 0 q 191 68 191 40 l 191 394 l 781 394 l 781 68 q 802 20 781 40 q 850 0 821 0 q 898 20 878 0 q 918 68 918 40 l 918 614 q 827 833 918 742 q 607 924 736 924 l 365 924 m 607 968 q 566 982 585 968 l 486 1042 l 406 982 q 355 969 383 965 q 310 996 327 973 q 297 1046 294 1018 q 324 1091 301 1074 l 445 1182 q 527 1182 486 1213 l 648 1091 q 675 1046 671 1074 q 662 996 679 1018 q 607 968 642 968 z "},"ã":{"ha":972,"x_min":54,"x_max":918,"o":"m 191 530 l 191 614 q 241 736 191 686 q 365 788 293 788 l 607 788 q 730 736 680 788 q 781 614 781 686 l 781 530 l 191 530 m 365 924 q 145 833 237 924 q 54 614 54 742 l 54 68 q 74 20 54 40 q 123 0 94 0 q 171 20 151 0 q 191 68 191 40 l 191 394 l 781 394 l 781 68 q 802 20 781 40 q 850 0 821 0 q 898 20 878 0 q 918 68 918 40 l 918 614 q 827 833 918 742 q 607 924 736 924 l 365 924 m 259 968 q 245 970 252 968 q 202 1000 218 976 q 193 1050 186 1023 q 278 1173 210 1133 q 418 1185 343 1209 q 477 1156 441 1177 q 509 1140 499 1143 q 577 1131 543 1127 q 663 1175 628 1138 q 710 1197 682 1196 q 759 1179 739 1198 q 781 1131 780 1159 q 762 1082 782 1103 q 594 996 694 1008 q 460 1013 526 987 q 410 1038 441 1020 q 374 1055 385 1052 q 346 1054 358 1061 q 326 1023 331 1045 q 302 983 321 999 q 259 968 283 968 z "},"ä":{"ha":972,"x_min":54,"x_max":918,"o":"m 191 530 l 191 614 q 241 736 191 686 q 365 788 293 788 l 607 788 q 730 736 680 788 q 781 614 781 686 l 781 530 l 191 530 m 365 924 q 145 833 237 924 q 54 614 54 742 l 54 68 q 74 20 54 40 q 123 0 94 0 q 171 20 151 0 q 191 68 191 40 l 191 394 l 781 394 l 781 68 q 802 20 781 40 q 850 0 821 0 q 898 20 878 0 q 918 68 918 40 l 918 614 q 827 833 918 742 q 607 924 736 924 l 365 924 m 304 999 q 256 1019 276 999 q 236 1067 236 1039 q 256 1115 236 1095 q 304 1135 276 1135 q 353 1115 332 1135 q 372 1067 372 1095 q 353 1019 372 1039 q 304 999 332 999 m 668 999 q 620 1019 640 999 q 600 1067 600 1038 q 620 1115 600 1095 q 668 1135 640 1135 q 716 1115 696 1135 q 736 1067 736 1095 q 716 1019 736 1038 q 668 999 696 999 z "},"å":{"ha":972,"x_min":54,"x_max":918,"o":"m 191 530 l 191 614 q 241 736 191 686 q 365 788 293 788 l 607 788 q 730 736 680 788 q 781 614 781 686 l 781 530 l 191 530 m 486 1007 q 507 998 498 1007 q 516 977 516 989 q 507 956 516 964 q 486 947 498 947 q 465 956 473 947 q 456 977 456 964 q 465 998 456 989 q 486 1007 473 1007 m 612 924 q 623 977 623 949 q 583 1074 623 1034 q 486 1114 543 1114 q 390 1074 429 1114 q 350 977 350 1034 q 360 924 350 949 q 144 831 233 922 q 54 614 54 741 l 54 68 q 74 20 54 40 q 123 0 94 0 q 171 20 151 0 q 191 68 191 40 l 191 394 l 781 394 l 781 68 q 802 20 781 40 q 850 0 821 0 q 898 20 878 0 q 918 68 918 40 l 918 614 q 828 831 918 741 q 612 924 739 922 z "},"æ":{"ha":1820,"x_min":54,"x_max":1766,"o":"m 1698 788 q 1746 808 1726 788 q 1766 856 1766 827 q 1746 904 1766 884 q 1698 924 1726 924 l 970 924 q 922 904 943 924 q 903 856 903 884 q 922 808 903 827 q 970 788 943 788 l 1698 788 m 191 614 q 241 736 191 686 q 365 788 293 788 l 607 788 q 730 736 680 788 q 781 614 781 686 l 781 530 l 191 530 l 191 614 m 1698 394 q 1746 414 1726 394 q 1766 462 1766 434 q 1746 510 1766 490 q 1698 530 1726 530 l 918 530 l 918 614 q 827 833 918 742 q 607 924 736 924 l 365 924 q 145 833 237 924 q 54 614 54 742 l 54 68 q 74 20 54 40 q 123 0 94 0 q 171 20 151 0 q 191 68 191 40 l 191 394 l 781 394 l 781 68 q 802 20 781 40 q 850 0 821 0 l 1698 0 q 1746 20 1726 0 q 1766 68 1766 40 q 1746 117 1766 96 q 1698 136 1726 136 l 918 136 l 918 394 l 1698 394 z "},"ç":{"ha":972,"x_min":54,"x_max":918,"o":"m 850 637 q 898 656 878 637 q 918 705 918 677 l 918 735 q 862 869 918 813 q 728 924 806 924 l 243 924 q 110 869 165 924 q 54 735 54 813 l 54 190 q 110 56 54 111 q 243 1 165 1 l 418 1 l 418 -52 q 438 -101 418 -81 q 486 -121 458 -121 q 534 -101 514 -121 q 554 -52 554 -81 l 554 1 l 728 1 q 862 56 806 1 q 918 190 918 111 l 918 220 q 898 269 918 248 q 850 288 878 288 q 802 269 821 288 q 781 220 781 248 l 781 190 q 766 153 781 168 q 728 137 750 137 l 243 137 q 206 153 222 137 q 191 190 191 168 l 191 735 q 206 772 191 757 q 243 788 222 788 l 728 788 q 766 772 750 788 q 781 735 781 757 l 781 705 q 802 656 781 677 q 850 637 821 637 z "},"è":{"ha":972,"x_min":54,"x_max":918,"o":"m 850 394 q 898 414 878 394 q 918 462 918 434 q 898 510 918 490 q 850 530 878 530 l 191 530 l 191 788 l 850 788 q 898 808 878 788 q 918 856 918 827 q 898 904 918 884 q 850 924 878 924 l 123 924 q 74 904 94 924 q 54 856 54 884 l 54 68 q 74 20 54 40 q 123 0 94 0 l 850 0 q 898 20 878 0 q 918 68 918 40 q 898 117 918 96 q 850 136 878 136 l 191 136 l 191 394 l 850 394 m 509 968 q 448 1006 467 968 l 402 1097 q 399 1149 390 1122 q 433 1188 408 1176 q 485 1192 458 1201 q 524 1158 511 1183 l 570 1067 q 573 1015 583 1042 q 539 976 564 988 q 509 968 525 968 z "},"é":{"ha":972,"x_min":54,"x_max":918,"o":"m 850 394 q 898 414 878 394 q 918 462 918 434 q 898 510 918 490 q 850 530 878 530 l 191 530 l 191 788 l 850 788 q 898 808 878 788 q 918 856 918 827 q 898 904 918 884 q 850 924 878 924 l 123 924 q 74 904 94 924 q 54 856 54 884 l 54 68 q 74 20 54 40 q 123 0 94 0 l 850 0 q 898 20 878 0 q 918 68 918 40 q 898 117 918 96 q 850 136 878 136 l 191 136 l 191 394 l 850 394 m 463 968 q 433 976 447 968 q 399 1015 408 988 q 402 1067 390 1042 l 448 1158 q 487 1192 460 1183 q 539 1188 514 1201 q 573 1149 564 1176 q 570 1097 583 1122 l 524 1006 q 463 968 505 968 z "},"ê":{"ha":972,"x_min":54,"x_max":918,"o":"m 850 394 q 898 414 878 394 q 918 462 918 434 q 898 510 918 490 q 850 530 878 530 l 191 530 l 191 788 l 850 788 q 898 808 878 788 q 918 856 918 827 q 898 904 918 884 q 850 924 878 924 l 123 924 q 74 904 94 924 q 54 856 54 884 l 54 68 q 74 20 54 40 q 123 0 94 0 l 850 0 q 898 20 878 0 q 918 68 918 40 q 898 117 918 96 q 850 136 878 136 l 191 136 l 191 394 l 850 394 m 607 968 q 566 982 585 968 l 486 1042 l 406 982 q 355 969 383 965 q 310 996 327 973 q 297 1046 294 1018 q 324 1091 301 1074 l 445 1182 q 527 1182 486 1213 l 648 1091 q 675 1046 671 1074 q 662 996 679 1018 q 607 968 642 968 z "},"ë":{"ha":972,"x_min":54,"x_max":918,"o":"m 850 394 q 898 414 878 394 q 918 462 918 434 q 898 510 918 490 q 850 530 878 530 l 191 530 l 191 788 l 850 788 q 898 808 878 788 q 918 856 918 827 q 898 904 918 884 q 850 924 878 924 l 123 924 q 74 904 94 924 q 54 856 54 884 l 54 68 q 74 20 54 40 q 123 0 94 0 l 850 0 q 898 20 878 0 q 918 68 918 40 q 898 117 918 96 q 850 136 878 136 l 191 136 l 191 394 l 850 394 m 304 999 q 256 1019 276 999 q 236 1067 236 1038 q 256 1115 236 1095 q 304 1135 276 1135 q 353 1115 332 1135 q 372 1067 372 1095 q 353 1019 372 1039 q 304 999 332 999 m 668 999 q 620 1019 640 999 q 600 1067 600 1039 q 620 1115 600 1095 q 668 1135 640 1135 q 716 1115 696 1135 q 736 1067 736 1095 q 716 1019 736 1039 q 668 999 696 999 z "},"ì":{"ha":301,"x_min":54,"x_max":247,"o":"m 151 0 q 102 20 123 0 q 83 68 83 40 l 83 856 q 102 904 83 884 q 151 924 123 924 q 199 904 179 924 q 219 856 219 884 l 219 68 q 199 20 219 40 q 151 0 179 0 m 174 968 q 113 1006 132 968 l 67 1097 q 63 1149 54 1122 q 98 1188 73 1176 q 150 1192 123 1201 q 189 1158 176 1183 l 235 1067 q 238 1015 247 1042 q 204 976 229 988 q 174 968 190 968 z "},"í":{"ha":301,"x_min":54,"x_max":247,"o":"m 151 0 q 102 20 123 0 q 83 68 83 40 l 83 856 q 102 904 83 884 q 151 924 123 924 q 199 904 179 924 q 219 856 219 884 l 219 68 q 199 20 219 40 q 151 0 179 0 m 128 968 q 98 976 112 968 q 63 1015 73 988 q 67 1067 54 1042 l 113 1158 q 152 1192 125 1183 q 204 1188 179 1201 q 238 1149 229 1176 q 235 1097 247 1122 l 189 1006 q 128 968 170 968 z "},"î":{"ha":494,"x_min":54,"x_max":439,"o":"m 247 0 q 199 20 219 0 q 179 68 179 40 l 179 856 q 199 904 179 884 q 247 924 219 924 q 295 904 275 924 q 315 856 315 884 l 315 68 q 295 20 315 40 q 247 0 275 0 m 368 968 q 328 982 346 968 l 247 1042 l 167 982 q 116 969 144 965 q 71 996 88 973 q 58 1046 54 1018 q 85 1091 62 1074 l 206 1182 q 288 1182 247 1213 l 409 1091 q 436 1046 432 1074 q 422 996 439 1018 q 368 968 402 968 z "},"ï":{"ha":396,"x_min":54,"x_max":342,"o":"m 198 0 q 150 20 170 0 q 130 68 130 40 l 130 856 q 150 904 130 884 q 198 924 170 924 q 246 904 227 924 q 267 856 267 884 l 267 68 q 246 20 267 40 q 198 0 227 0 m 274 999 q 226 1019 245 999 q 205 1067 205 1039 q 226 1115 205 1095 q 274 1135 245 1135 q 322 1115 302 1135 q 342 1067 342 1095 q 322 1019 342 1039 q 274 999 302 999 m 123 999 q 74 1019 94 999 q 54 1067 54 1039 q 74 1115 54 1095 q 123 1135 94 1135 q 171 1115 151 1135 q 191 1067 191 1095 q 171 1019 191 1039 q 123 999 151 999 z "},"ñ":{"ha":972,"x_min":54,"x_max":918,"o":"m 850 0 q 800 22 820 0 l 191 682 l 191 68 q 171 20 191 40 q 123 0 151 0 q 74 20 94 0 q 54 68 54 40 l 54 856 q 98 920 54 903 q 172 902 141 937 l 781 243 l 781 856 q 802 904 781 884 q 850 924 821 924 q 898 904 878 924 q 918 856 918 884 l 918 68 q 874 5 918 22 q 850 0 863 0 m 259 968 q 245 970 252 968 q 202 1000 218 976 q 193 1050 186 1023 q 278 1173 210 1133 q 418 1185 343 1209 q 477 1156 441 1177 q 509 1140 499 1143 q 577 1131 543 1127 q 663 1175 628 1138 q 710 1197 682 1196 q 759 1179 739 1198 q 781 1131 780 1159 q 762 1082 782 1103 q 594 996 694 1008 q 460 1013 526 987 q 410 1038 441 1020 q 374 1055 385 1052 q 346 1054 358 1061 q 326 1023 331 1045 q 302 983 321 999 q 259 968 283 968 z "},"ò":{"ha":972,"x_min":54,"x_max":918,"o":"m 243 788 q 206 772 222 788 q 191 734 191 757 l 191 189 q 206 152 191 168 q 243 136 222 136 l 728 136 q 766 152 750 136 q 781 189 781 168 l 781 734 q 766 772 781 757 q 728 788 750 788 l 243 788 m 243 0 q 110 56 165 0 q 54 189 54 111 l 54 734 q 110 869 54 813 q 243 924 165 924 l 728 924 q 862 869 806 924 q 918 734 918 813 l 918 189 q 862 56 918 111 q 728 0 806 0 l 243 0 m 516 970 q 455 1007 474 970 l 410 1098 q 406 1150 397 1123 q 440 1190 415 1177 q 492 1193 466 1202 q 532 1159 519 1184 l 577 1068 q 581 1016 590 1043 q 547 977 572 989 q 516 970 532 970 z "},"ó":{"ha":972,"x_min":54,"x_max":918,"o":"m 243 788 q 206 772 222 788 q 191 734 191 757 l 191 189 q 206 152 191 168 q 243 136 222 136 l 728 136 q 766 152 750 136 q 781 189 781 168 l 781 734 q 766 772 781 757 q 728 788 750 788 l 243 788 m 243 0 q 110 56 165 0 q 54 189 54 111 l 54 734 q 110 869 54 813 q 243 924 165 924 l 728 924 q 862 869 806 924 q 918 734 918 813 l 918 189 q 862 56 918 111 q 728 0 806 0 l 243 0 m 456 970 q 425 977 439 970 q 391 1016 400 989 q 395 1068 382 1043 l 440 1159 q 479 1193 453 1184 q 532 1190 507 1202 q 566 1150 557 1177 q 562 1098 574 1123 l 517 1007 q 456 970 498 970 z "},"ô":{"ha":972,"x_min":54,"x_max":918,"o":"m 243 788 q 206 772 222 788 q 191 734 191 757 l 191 189 q 206 152 191 168 q 243 136 222 136 l 728 136 q 766 152 750 136 q 781 189 781 168 l 781 734 q 766 772 781 757 q 728 788 750 788 l 243 788 m 243 0 q 110 56 165 0 q 54 189 54 111 l 54 734 q 110 869 54 813 q 243 924 165 924 l 728 924 q 862 869 806 924 q 918 734 918 813 l 918 189 q 862 56 918 111 q 728 0 806 0 l 243 0 m 607 970 q 566 983 585 970 l 486 1043 l 406 983 q 355 970 383 966 q 310 997 327 974 q 297 1047 294 1019 q 324 1092 301 1075 l 445 1183 q 527 1183 486 1214 l 648 1092 q 675 1047 671 1075 q 662 997 679 1019 q 607 970 642 970 z "},"õ":{"ha":972,"x_min":54,"x_max":918,"o":"m 243 788 q 206 772 222 788 q 191 734 191 757 l 191 189 q 206 152 191 168 q 243 136 222 136 l 728 136 q 766 152 750 136 q 781 189 781 168 l 781 734 q 766 772 781 757 q 728 788 750 788 l 243 788 m 243 0 q 110 56 165 0 q 54 189 54 111 l 54 734 q 110 869 54 813 q 243 924 165 924 l 728 924 q 862 869 806 924 q 918 734 918 813 l 918 189 q 862 56 918 111 q 728 0 806 0 l 243 0 m 259 970 q 245 971 252 970 q 202 1000 218 977 q 193 1052 186 1024 q 278 1173 210 1134 q 418 1185 343 1211 q 477 1157 441 1178 q 509 1141 499 1145 q 577 1133 543 1128 q 663 1176 628 1139 q 710 1198 682 1197 q 759 1179 739 1199 q 781 1132 780 1160 q 762 1083 782 1104 q 594 997 694 1010 q 460 1014 526 989 q 410 1039 441 1021 q 374 1057 385 1053 q 346 1055 358 1062 q 326 1023 331 1046 q 302 985 321 1000 q 259 970 283 970 z "},"ö":{"ha":972,"x_min":54,"x_max":918,"o":"m 304 1000 q 256 1020 276 1000 q 236 1068 236 1040 q 256 1116 236 1096 q 304 1136 276 1136 q 353 1116 332 1136 q 372 1068 372 1096 q 353 1020 372 1040 q 304 1000 332 1000 m 668 1000 q 620 1020 640 1000 q 600 1068 600 1040 q 620 1116 600 1096 q 668 1136 640 1136 q 716 1116 696 1136 q 736 1068 736 1096 q 716 1020 736 1040 q 668 1000 696 1000 m 243 788 q 206 772 222 788 q 191 734 191 757 l 191 189 q 206 152 191 168 q 243 136 222 136 l 728 136 q 766 152 750 136 q 781 189 781 168 l 781 734 q 766 772 781 757 q 728 788 750 788 l 243 788 m 243 0 q 110 56 165 0 q 54 189 54 111 l 54 734 q 110 869 54 813 q 243 924 165 924 l 728 924 q 862 869 806 924 q 918 734 918 813 l 918 189 q 862 56 918 111 q 728 0 806 0 l 243 0 z "},"ø":{"ha":1095,"x_min":54,"x_max":1040,"o":"m 843 189 q 827 152 843 168 q 789 136 812 136 l 305 136 q 297 137 302 136 l 843 644 l 843 189 m 252 734 q 267 772 252 757 q 305 788 283 788 l 789 788 q 797 787 793 788 l 252 281 l 252 734 m 1021 902 q 974 924 1002 923 q 925 906 945 925 l 903 886 q 789 924 853 924 l 305 924 q 171 869 227 924 q 115 734 115 813 l 115 189 q 119 157 115 173 l 77 118 q 55 71 56 99 q 73 22 54 43 q 123 0 94 0 q 170 18 150 0 l 191 38 q 305 0 241 0 l 789 0 q 924 56 868 0 q 979 189 979 111 l 979 734 q 976 767 979 751 l 1018 806 q 1040 853 1038 825 q 1021 902 1040 882 z "},"ù":{"ha":972,"x_min":54,"x_max":918,"o":"m 365 0 q 145 91 237 0 q 54 311 54 182 l 54 856 q 74 904 54 884 q 123 924 94 924 q 171 904 151 924 q 191 856 191 884 l 191 311 q 241 187 191 239 q 365 136 293 136 l 607 136 q 730 187 680 136 q 781 311 781 239 l 781 856 q 802 904 781 884 q 850 924 821 924 q 898 904 878 924 q 918 856 918 884 l 918 311 q 827 91 918 182 q 607 0 736 0 l 365 0 m 509 970 q 448 1007 467 970 l 402 1098 q 399 1150 390 1123 q 433 1190 408 1177 q 485 1193 458 1202 q 524 1159 511 1184 l 570 1068 q 573 1016 583 1043 q 539 977 564 989 q 509 970 525 970 z "},"ú":{"ha":972,"x_min":54,"x_max":918,"o":"m 365 0 q 145 91 237 0 q 54 311 54 182 l 54 856 q 74 904 54 884 q 123 924 94 924 q 171 904 151 924 q 191 856 191 884 l 191 311 q 241 187 191 239 q 365 136 293 136 l 607 136 q 730 187 680 136 q 781 311 781 239 l 781 856 q 802 904 781 884 q 850 924 821 924 q 898 904 878 924 q 918 856 918 884 l 918 311 q 827 91 918 182 q 607 0 736 0 l 365 0 m 463 970 q 433 977 447 970 q 399 1016 408 989 q 402 1068 390 1043 l 448 1159 q 487 1193 460 1184 q 539 1190 514 1202 q 573 1150 564 1177 q 570 1098 583 1123 l 524 1007 q 463 970 505 970 z "},"û":{"ha":972,"x_min":54,"x_max":918,"o":"m 365 0 q 145 91 237 0 q 54 311 54 182 l 54 856 q 74 904 54 884 q 123 924 94 924 q 171 904 151 924 q 191 856 191 884 l 191 311 q 241 187 191 239 q 365 136 293 136 l 607 136 q 730 187 680 136 q 781 311 781 239 l 781 856 q 802 904 781 884 q 850 924 821 924 q 898 904 878 924 q 918 856 918 884 l 918 311 q 827 91 918 182 q 607 0 736 0 l 365 0 m 607 970 q 566 983 585 970 l 486 1043 l 406 983 q 355 970 383 966 q 310 997 327 974 q 297 1047 294 1019 q 324 1092 301 1075 l 445 1183 q 527 1183 486 1214 l 648 1092 q 675 1047 671 1075 q 662 997 679 1019 q 607 970 642 970 z "},"ü":{"ha":972,"x_min":54,"x_max":918,"o":"m 365 0 q 145 91 237 0 q 54 311 54 182 l 54 856 q 74 904 54 884 q 123 924 94 924 q 171 904 151 924 q 191 856 191 884 l 191 311 q 241 187 191 239 q 365 136 293 136 l 607 136 q 730 187 680 136 q 781 311 781 239 l 781 856 q 802 904 781 884 q 850 924 821 924 q 898 904 878 924 q 918 856 918 884 l 918 311 q 827 91 918 182 q 607 0 736 0 l 365 0 m 304 1000 q 256 1020 276 1000 q 236 1068 236 1040 q 256 1116 236 1096 q 304 1136 276 1136 q 353 1116 332 1136 q 372 1068 372 1096 q 353 1020 372 1040 q 304 1000 332 1000 m 668 1000 q 620 1020 640 1000 q 600 1068 600 1040 q 620 1116 600 1096 q 668 1136 640 1136 q 716 1116 696 1136 q 736 1068 736 1096 q 716 1020 736 1040 q 668 1000 696 1000 z "},"ý":{"ha":972,"x_min":54,"x_max":918,"o":"m 850 924 q 802 904 821 924 q 781 856 781 884 l 781 583 q 766 546 781 562 q 728 530 750 530 l 243 530 q 206 546 222 530 q 191 583 191 562 l 191 856 q 171 904 191 884 q 123 924 151 924 q 74 904 94 924 q 54 856 54 884 l 54 583 q 110 450 54 505 q 243 394 165 394 l 728 394 q 781 401 755 394 l 781 189 q 766 152 781 168 q 728 136 750 136 l 243 136 q 206 152 222 136 q 191 189 191 168 l 191 220 q 171 268 191 248 q 123 288 151 288 q 74 268 94 288 q 54 220 54 248 l 54 189 q 110 56 54 111 q 243 0 165 0 l 728 0 q 862 56 806 0 q 918 189 918 111 l 918 856 q 898 904 918 884 q 850 924 878 924 m 463 968 q 433 976 447 968 q 399 1015 408 988 q 402 1067 390 1042 l 448 1158 q 487 1192 460 1183 q 539 1188 514 1201 q 573 1149 564 1176 q 570 1097 583 1122 l 524 1006 q 463 968 505 968 z "},"ÿ":{"ha":972,"x_min":54,"x_max":918,"o":"m 850 924 q 802 904 821 924 q 781 856 781 884 l 781 583 q 766 546 781 562 q 728 530 750 530 l 243 530 q 206 546 222 530 q 191 583 191 562 l 191 856 q 171 904 191 884 q 123 924 151 924 q 74 904 94 924 q 54 856 54 884 l 54 583 q 110 450 54 505 q 243 394 165 394 l 728 394 q 781 401 755 394 l 781 189 q 766 152 781 168 q 728 136 750 136 l 243 136 q 206 152 222 136 q 191 189 191 168 l 191 220 q 171 268 191 248 q 123 288 151 288 q 74 268 94 288 q 54 220 54 248 l 54 189 q 110 56 54 111 q 243 0 165 0 l 728 0 q 862 56 806 0 q 918 189 918 111 l 918 856 q 898 904 918 884 q 850 924 878 924 m 304 999 q 353 1019 332 999 q 372 1067 372 1038 q 353 1115 372 1095 q 304 1135 332 1135 q 256 1115 276 1135 q 236 1067 236 1095 q 256 1019 236 1038 q 304 999 276 999 m 668 999 q 716 1019 696 999 q 736 1067 736 1038 q 716 1115 736 1095 q 668 1135 696 1135 q 620 1115 640 1135 q 600 1067 600 1095 q 620 1019 600 1038 q 668 999 640 999 z "},"ı":{"ha":245,"x_min":54,"x_max":191,"o":"m 123 0 q 74 20 94 0 q 54 68 54 40 l 54 856 q 74 904 54 884 q 123 924 94 924 q 171 904 151 924 q 191 856 191 884 l 191 68 q 171 20 191 40 q 123 0 151 0 z "},"‘":{"ha":366,"x_min":54,"x_max":312,"o":"m 123 653 q 74 673 94 653 q 54 722 54 693 l 54 782 q 110 916 54 860 q 243 971 165 971 q 292 951 272 971 q 312 903 312 931 q 292 854 312 875 q 243 835 272 835 q 206 819 222 835 q 191 782 191 804 l 191 722 q 171 673 191 693 q 123 653 151 653 z "},"’":{"ha":366,"x_min":54,"x_max":312,"o":"m 243 654 q 195 673 216 654 q 176 722 176 694 l 176 783 q 160 820 176 804 q 123 836 144 836 q 74 855 94 836 q 54 904 54 876 q 74 952 54 932 q 123 972 94 972 q 256 916 201 972 q 312 783 312 861 l 312 722 q 292 673 312 694 q 243 654 272 654 z "},"“":{"ha":366,"x_min":54,"x_max":312,"o":"m 123 653 q 74 673 94 653 q 54 722 54 693 l 54 782 q 110 916 54 860 q 243 971 165 971 q 292 951 272 971 q 312 903 312 931 q 292 854 312 875 q 243 835 272 835 q 206 819 222 835 q 191 782 191 804 l 191 722 q 171 673 191 693 q 123 653 151 653 z "},"”":{"ha":366,"x_min":54,"x_max":312,"o":"m 243 654 q 195 673 216 654 q 176 722 176 694 l 176 783 q 160 820 176 804 q 123 836 144 836 q 74 855 94 836 q 54 904 54 876 q 74 952 54 932 q 123 972 94 972 q 256 916 201 972 q 312 783 312 861 l 312 722 q 292 673 312 694 q 243 654 272 654 z "},"€":{"ha":911,"x_min":54,"x_max":857,"o":"m 486 136 q 366 185 416 136 q 312 303 315 233 l 486 303 q 534 323 514 303 q 554 371 554 343 q 534 419 554 399 q 486 439 514 439 l 312 439 l 312 485 l 486 485 q 534 505 514 485 q 554 553 554 525 q 534 601 554 581 q 486 621 514 621 l 312 621 q 366 739 315 690 q 486 788 416 788 l 789 788 q 837 808 817 788 q 857 856 857 827 q 837 904 857 884 q 789 924 817 924 l 486 924 q 269 836 359 924 q 176 621 178 747 l 123 621 q 74 601 94 621 q 54 553 54 581 q 74 505 54 525 q 123 485 94 485 l 176 485 l 176 439 l 123 439 q 74 419 94 439 q 54 371 54 399 q 74 323 54 343 q 123 303 94 303 l 176 303 q 269 89 178 177 q 486 0 359 0 l 789 0 q 837 20 817 0 q 857 68 857 40 q 837 117 857 96 q 789 136 817 136 l 486 136 z "},"":{"ha":728,"x_min":0,"x_max":0,"o":""},"":{"ha":733,"x_min":0,"x_max":0,"o":""}}}
